<?xml version="1.0" encoding="UTF-8"?>
<!-- Created with Inkscape (http://www.inkscape.org/) -->
<svg width="150" height="150" version="1.1" viewBox="0 0 150 150" xmlns="http://www.w3.org/2000/svg">
 <path d="m68.781 18.214c-1.5395-0.05132-2.1621 0.60408-2.1621 1.9551 0 1.5146 0.99281 1.9049 4.0957 1.6094 0.8783-0.0837 2.1672 0.53425 2.8633 1.373 1.9403 2.3379-1.0999 3.045-4.8203 1.1211-4.23-2.1874-7.7858-2.0312-8.4141 0.37109-0.3672 1.404 0.0592 2.0295 1.5332 2.25 4.0195 0.601 6.2431 5.2886 6.2305 13.133-0.01 6.0062-0.5435 8.2983-3.2793 14.096-2.2252 4.7156-2.9105 7.1435-2.1504 7.6133 2.0761 1.283 0.58958 5.372-2.3242 6.3926-2.1589 0.75614-3.1267 0.60772-4.4062-0.67188-1.519-1.519-1.4711-2.3942 0.63671-11.947 1.9334-8.7624 2.1003-10.948 1.1152-14.562-1.599-5.8687-4.5461-7.6226-11.795-7.0215-5.303 0.4397-5.9915 0.80495-10.145 5.373-2.4506 2.6955-5.7352 7.7129-7.2988 11.15-9.5667 21.033-9.0089 19.41-7.3047 21.293 1.2667 1.399 1.533 3.9561 1.3652 13.102-0.1697 9.2502 0.12624 12.016 1.5859 14.861 7.29 14.21 19.651 24.983 34 29.633l-2e-3 2e-3c13.421 4.3494 30.187 2.8208 42.932-3.9141 7.865-4.156 19.164-15.47 23.336-23.365 2.9758-5.6309 3.2496-6.916 3.291-15.5 0.0265-5.4863 0.59168-10.601 1.3672-12.359 1.1574-2.6242 1.1049-3.2505-0.42187-5-0.96-1.1-3.6421-6.5-5.9609-12-9.299-22.056-15.188-27.238-24.117-21.221-5.0493 3.403-6.0929 6.1024-5.498 14.221 0.28213 3.8502 0.81217 9.1303 1.1777 11.734 0.6117 4.3575 0.47405 4.8072-1.7148 5.6328-4.3819 1.6528-6.0447-0.26876-5.793-6.6895 0.13328-3.3998-0.18298-5.5974-0.7871-5.4766-0.5686 0.1137-1.2724-3.16-1.6133-7.5-0.3328-4.2364-1.2804-9.9269-2.1055-12.646-1.1216-3.6967-1.2162-5.2872-0.375-6.3008 0.87839-1.0583 0.65053-1.48-1.0391-1.9219-2.6357-0.6893-2.8699-2.332-0.33203-2.332 4.1659 0 2.745-1.492-4.0078-4.2051-3.6669-1.4733-6.1226-2.2299-7.6621-2.2812zm-5.9199 59.484h13.879c10.44 0 13.877 0.30968 13.871 1.25-4e-3 0.688-3.5525 7.6399-7.8848 15.449-4.3323 7.8093-7.6294 14.447-7.3262 14.75 0.3031 0.30317 2.3347 0.55078 4.5156 0.55078 4.3105 0 10.701-3.2968 10.701-5.5215 0-2.3994 1.7958-2.5741 5.1914-0.50391 6.3921 3.897 13.286 1.6521 10.561-3.4395-0.5938-1.1096-3.4815-4.2875-6.416-7.0625-3.7418-3.5384-5.3359-5.8096-5.3359-7.6035 0-5.4995 7.253-8.1626 14.969-5.4961 4.0669 1.4054 4.6275 1.3999 6.25-0.06836 1.6653-1.507 1.7832-1.4481 1.7832 0.91797 0 4.1945-2.0453 5.0005-6.7676 2.6641-4.5552-2.2537-8.2324-1.8171-8.2324 0.97852 0 0.9514 2.7 4.2782 6 7.3926 4.574 4.3167 6 6.3325 6 8.4805 0 6.6482-5.16 9.2012-14.625 7.2363l-5.666-1.1758-2.4316 3.1055-2.4316 3.1074-12.91-0.0781c-7.0998-0.0429-13.106-0.39931-13.348-0.79102-0.2421-0.3917 1.8042-4.2968 4.5488-8.6777 4.8632-7.762 11.863-20.774 11.863-22.053 0-0.3508-3.2028-0.45751-7.1172-0.23633-6.5031 0.3675-7.3635 0.67855-9.9648 3.5898-2.1392 2.3943-3.0422 2.8545-3.6328 1.8555-1.99-3.3654-7.6326-4.5512-10.764-2.2617-1.7411 1.2732-1.4346 1.8136 4.8086 8.4609 6.965 7.4159 7.9174 9.9525 5.1973 13.836-2.044 2.9176-5.759 3.4534-14.779 2.1328-6.0992-0.89289-7.75-1.4882-7.75-2.7949 0-2.7886 1.0842-2.9917 5.084-0.95117 5.1983 2.652 9.5214 2.5638 11.014-0.22461 1.0423-1.9475 0.69736-2.6138-3.2148-6.2188-8.8269-8.1334-10.762-12.589-6.9609-16.029 3.811-3.4483 10.675-3.0074 18.191 1.166 0.3372 0.1872 1.179-1.0266 1.8711-2.6973z" fill="#fffefe"/>
 <path d="m64.812 147.32c0.72188-0.28887 1.5844-0.25335 1.9167 0.0789 0.33229 0.33229-0.25833 0.56864-1.3125 0.52522-1.1649-0.048-1.4019-0.28494-0.60417-0.60416zm19 0c0.72188-0.28887 1.5844-0.25335 1.9167 0.0789 0.33229 0.33229-0.25833 0.56864-1.3125 0.52522-1.1649-0.048-1.4019-0.28494-0.60417-0.60416zm-11.562-13.033c1.5125-0.22913 3.9875-0.22913 5.5 0 1.5125 0.22912 0.275 0.41659-2.75 0.41659s-4.2625-0.18747-2.75-0.41659zm-46.25-6.7838c-2.429-2.475-4.1914-4.5-3.9164-4.5s2.4874 2.025 4.9164 4.5 4.1914 4.5 3.9164 4.5-2.4874-2.025-4.9164-4.5zm101-3.8776c0-0.20765 0.7875-0.99515 1.75-1.75 1.5861-1.2439 1.6214-1.2085 0.37756 0.37756-1.3064 1.6658-2.1276 2.1955-2.1276 1.3724zm-89.128-3.3724c-1.2439-1.5861-1.2085-1.6214 0.37756-0.37756 0.9625 0.75485 1.75 1.5424 1.75 1.75 0 0.82304-0.82119 0.29331-2.1276-1.3724zm-5-5c-1.2439-1.5861-1.2085-1.6214 0.37756-0.37756 0.9625 0.75485 1.75 1.5424 1.75 1.75 0 0.82304-0.82119 0.29331-2.1276-1.3724zm34.397-0.94299c0.97297-0.25354 2.323-0.23687 3 0.037 0.67703 0.27393-0.11903 0.48137-1.769 0.46099-1.65-0.0204-2.2039-0.2445-1.231-0.49804zm-45.19-27.89c0.04798-1.1649 0.28494-1.4019 0.60417-0.60417 0.28887 0.72188 0.25334 1.5844-0.07895 1.9167-0.33229 0.33229-0.56864-0.25833-0.52522-1.3125zm-17-3c0.047984-1.1649 0.28494-1.4019 0.60417-0.60417 0.28887 0.72188 0.25334 1.5844-0.078947 1.9167-0.33229 0.33229-0.56864-0.25833-0.52522-1.3125zm0-16c0.047984-1.1649 0.28494-1.4019 0.60417-0.60417 0.28887 0.72188 0.25334 1.5844-0.078947 1.9167-0.33229 0.33229-0.56864-0.25833-0.52522-1.3125zm19.921-43.794c0-0.20766 0.7875-0.99516 1.75-1.75 1.5861-1.2439 1.6214-1.2085 0.37756 0.37756-1.3064 1.6657-2.1276 2.1955-2.1276 1.3724zm40.812-21.306c0.72188-0.28887 1.5844-0.25334 1.9167 0.078947 0.33229 0.33229-0.25833 0.56864-1.3125 0.52522-1.1649-0.047984-1.4019-0.28494-0.60417-0.60417zm18 0c0.72188-0.28887 1.5844-0.25334 1.9167 0.078947 0.33229 0.33229-0.25833 0.56864-1.3125 0.52522-1.1649-0.047984-1.4019-0.28494-0.60417-0.60417z" fill="#f7ef9f"/>
 <path d="m67.812 147.32c0.72188-0.28887 1.5844-0.25335 1.9167 0.0789 0.33229 0.33229-0.25833 0.56864-1.3125 0.52522-1.1649-0.048-1.4019-0.28494-0.60417-0.60416zm11.938 0.0208c0.6875-0.27741 1.8125-0.27741 2.5 0s0.125 0.50439-1.25 0.50439-1.9375-0.22698-1.25-0.50439zm43.25-19.838c1.8658-1.925 3.6173-3.5 3.8923-3.5s-1.0266 1.575-2.8923 3.5-3.6173 3.5-3.8923 3.5 1.0266-1.575 2.8923-3.5zm-11-6.8129c0-0.1721 1.4625-1.6346 3.25-3.25l3.25-2.9371-2.9371 3.25c-2.7378 3.0295-3.5629 3.7096-3.5629 2.9371zm32.079-36.27c0.048-1.1649 0.28494-1.4019 0.60416-0.60417 0.28887 0.72188 0.25335 1.5844-0.0789 1.9167-0.3323 0.33229-0.56864-0.25833-0.52522-1.3125zm-138.75-8.9167c0.00444-3.85 0.18518-5.3025 0.40166-3.2277s0.21285 5.2248-0.00807 7c-0.22091 1.7752-0.39802 0.077696-0.39359-3.7723zm138.75-10.083c0.048-1.1649 0.28494-1.4019 0.60416-0.60417 0.28887 0.72188 0.25335 1.5844-0.0789 1.9167-0.3323 0.33229-0.56864-0.25833-0.52522-1.3125zm-138-3c0.047984-1.1649 0.28494-1.4019 0.60417-0.60417 0.28887 0.72188 0.25334 1.5844-0.078947 1.9167-0.33229 0.33229-0.56864-0.25833-0.52522-1.3125zm120.33-36.667-1.905-2.25 2.25 1.905c1.2375 1.0477 2.25 2.0602 2.25 2.25 0 0.80025-0.80479 0.20946-2.595-1.905zm-6.5326-6.5c-1.2439-1.5861-1.2085-1.6214 0.37756-0.37756 1.6658 1.3064 2.1955 2.1276 1.3724 2.1276-0.20765 0-0.99515-0.7875-1.75-1.75zm-89.872 0.37244c0-0.20766 0.7875-0.99516 1.75-1.75 1.5861-1.2439 1.6214-1.2085 0.37756 0.37756-1.3064 1.6657-2.1276 2.1955-2.1276 1.3724zm38.812-17.306c0.72188-0.28887 1.5844-0.25334 1.9167 0.078947 0.33229 0.33229-0.25833 0.56864-1.3125 0.52522-1.1649-0.047984-1.4019-0.28494-0.60417-0.60417zm10.938 0.020833c0.6875-0.27741 1.8125-0.27741 2.5 0s0.125 0.50439-1.25 0.50439-1.9375-0.22697-1.25-0.50439z" fill="#f6e95e"/>
 <path d="m74.269 114.31c0.97297-0.25354 2.323-0.23687 3 0.037 0.67703 0.27393-0.11903 0.48137-1.769 0.46099-1.65-0.0204-2.2039-0.2445-1.231-0.49804zm-25-3c0.97297-0.25354 2.323-0.23687 3 0.037 0.67703 0.27393-0.11903 0.48137-1.769 0.46099-1.65-0.0204-2.2039-0.2445-1.231-0.49804zm55.481-0.96929c0.6875-0.27741 1.8125-0.27741 2.5 0s0.125 0.50439-1.25 0.50439-1.9375-0.22698-1.25-0.50439zm-54.878-18.088c-1.2439-1.5861-1.2085-1.6214 0.37756-0.37756 0.9625 0.75484 1.75 1.5423 1.75 1.75 0 0.82303-0.82119 0.2933-2.1276-1.3724zm-28.048-1.9242c0.42673-2.093 0.67819-2.3444 0.9696-0.9696 0.2164 1.0209-0.04287 2.2925-0.57615 2.8258-0.62614 0.62614-0.76551-0.0314-0.39345-1.8562zm0.37044-7.8258c0.02038-1.65 0.2445-2.2039 0.49804-1.231 0.25354 0.97297 0.23687 2.323-0.03705 3-0.27393 0.67703-0.48137-0.11903-0.46099-1.769zm81.074-1.193c0.97297-0.25354 2.323-0.23687 3 0.03705 0.67703 0.27392-0.11903 0.48137-1.769 0.46099s-2.2039-0.2445-1.231-0.49804zm-29.019-1.046c3.1625-0.19845 8.3375-0.19845 11.5 0s0.575 0.36082-5.75 0.36082-8.9125-0.16237-5.75-0.36082zm-16.5-9.9233c0.6875-0.27741 1.8125-0.27741 2.5 0s0.125 0.50439-1.25 0.50439-1.9375-0.22697-1.25-0.50439zm-2.6711-4.9211c0.04798-1.1649 0.28494-1.4019 0.60417-0.60417 0.28887 0.72188 0.25334 1.5844-0.07895 1.9167-0.33229 0.33229-0.56864-0.25833-0.52522-1.3125zm37.153-15.417c0-1.925 0.2058-2.7125 0.45732-1.75 0.25153 0.9625 0.25153 2.5375 0 3.5s-0.45732 0.175-0.45732-1.75zm-45.47-14.707c1.2439-0.23919 3.0439-0.23011 4 0.02018 0.95609 0.25029-0.061659 0.446-2.2617 0.4349-2.2-0.0111-2.9823-0.21588-1.7383-0.45508zm16.051-10.976c0.72188-0.28887 1.5844-0.25334 1.9167 0.07895 0.33229 0.33229-0.25833 0.56864-1.3125 0.52522-1.1649-0.04798-1.4019-0.28494-0.60417-0.60417zm19 0c0.72188-0.28887 1.5844-0.25334 1.9167 0.07895 0.33229 0.33229-0.25833 0.56864-1.3125 0.52522-1.1649-0.04798-1.4019-0.28494-0.60417-0.60417z" fill="#f0a1a4"/>
 <path d="m63.5 146.57c-25.514-4.9158-46.002-23.097-54.167-48.069-3.4293-10.488-4.297-28.288-1.9256-39.5 5.4834-25.925 26.15-47.785 51.592-54.572 8.567-2.2855 24.294-2.2706 33 0.031082 47.233 12.487 68.018 70.026 40.362 111.73-15.068 22.723-43.497 35.264-68.862 30.377zm29.62-14.812c15.056-5.4902 26.251-15.407 32.828-29.081 11.681-24.285 7.8048-51.063-10.093-69.73-27.068-28.231-73.155-20.992-90.834 14.268-14.594 29.107-5.0673 63.645 22.028 79.857 13.645 8.1644 31.542 9.985 46.072 4.6868z" fill="#f9e512"/>
 <path d="m131.08 85.417c0.048-1.1649 0.28494-1.4019 0.60416-0.60417 0.28887 0.72188 0.25335 1.5844-0.0789 1.9167-0.3323 0.33229-0.56864-0.25833-0.52522-1.3125zm-112.74-10.917c0.0036-4.4 0.17944-6.0756 0.39069-3.7236 0.21124 2.352 0.20827 5.952-0.0066 8-0.21488 2.048-0.38772 0.12357-0.38409-4.2764zm113.98 0.5c0-3.575 0.1815-5.0375 0.40333-3.25 0.22182 1.7875 0.22182 4.7125 0 6.5-0.22183 1.7875-0.40333 0.325-0.40333-3.25zm-1.1622-11c0-1.375 0.22698-1.9375 0.50439-1.25s0.27741 1.8125 0 2.5-0.50439 0.125-0.50439-1.25zm-102.16-24.378c0-0.20766 0.7875-0.99516 1.75-1.75 1.5861-1.2439 1.6214-1.2085 0.37756 0.37756-1.3064 1.6657-2.1276 2.1955-2.1276 1.3724zm6.5-7.6224c0.99549-1.1 2.035-2 2.31-2s-0.31449 0.9-1.31 2-2.035 2-2.31 2 0.31449-0.9 1.31-2zm78.905-0.25-1.905-2.25 2.25 1.905c1.2375 1.0477 2.25 2.0602 2.25 2.25 0 0.80025-0.80479 0.20946-2.595-1.905zm-49.592-15.433c0.72188-0.28887 1.5844-0.25334 1.9167 0.07895 0.33229 0.33229-0.25833 0.56864-1.3125 0.52522-1.1649-0.04798-1.4019-0.28494-0.60417-0.60417zm20 0c0.72188-0.28887 1.5844-0.25334 1.9167 0.07895 0.33229 0.33229-0.25833 0.56864-1.3125 0.52522-1.1649-0.04798-1.4019-0.28494-0.60417-0.60417zm-11.549-1.0345c1.5201-0.22986 3.7701-0.22371 5 0.01365s-0.01375 0.42542-2.7638 0.41792c-2.75-0.0075-3.7563-0.20171-2.2362-0.43157z" fill="#f2a419"/>
 <path d="m100 109c0.825-0.53316 2.175-0.94464 3-0.9144 0.98906 0.0362 0.81874 0.34772-0.5 0.9144-2.7491 1.1813-4.328 1.1813-2.5 0zm-40.921-4.5833c0.04798-1.165 0.28494-1.4019 0.60417-0.60417 0.28887 0.72187 0.25334 1.5844-0.07895 1.9167-0.33229 0.33229-0.56864-0.25834-0.52522-1.3125zm-6.2065-9.1667c-1.2439-1.5861-1.2085-1.6214 0.37756-0.37756 0.9625 0.75484 1.75 1.5423 1.75 1.75 0 0.82303-0.82119 0.2933-2.1276-1.3724zm75.36-2.25c0-1.925 0.2058-2.7125 0.45733-1.75 0.25152 0.9625 0.25152 2.5375 0 3.5-0.25153 0.9625-0.45733 0.175-0.45733-1.75zm-106.67-0.70687c-0.54268-1.4252-0.42782-1.5401 0.5598-0.5598 0.68342 0.67833 0.99067 1.4852 0.68278 1.7931-0.30789 0.30789-0.86705-0.24711-1.2426-1.2333zm73.515-4.8765c0.04798-1.1649 0.28494-1.4019 0.60417-0.60417 0.28887 0.72188 0.25334 1.5844-0.07895 1.9167-0.33229 0.33229-0.56864-0.25833-0.52522-1.3125zm-76-3c0.04798-1.1649 0.28494-1.4019 0.60417-0.60417 0.28887 0.72188 0.25334 1.5844-0.07895 1.9167-0.33229 0.33229-0.56864-0.25833-0.52522-1.3125zm97.464-1.3476c-0.31644-0.512-0.19299-1.1672 0.27431-1.456 0.46731-0.28881 0.84965 0.1301 0.84965 0.9309 0 1.6862-0.31534 1.8335-1.124 0.52511zm-67.73-0.75221c0.72188-0.28887 1.5844-0.25334 1.9167 0.07895 0.33229 0.33229-0.25833 0.56864-1.3125 0.52522-1.1649-0.04798-1.4019-0.28494-0.60417-0.60417zm12.188-18.376c0-0.58246 0.45-0.7809 1-0.44098s1 0.81648 1 1.059-0.45 0.44098-1 0.44098-1-0.47656-1-1.059zm34-23.319c0-0.20766 0.7875-0.99516 1.75-1.75 1.5861-1.2439 1.6214-1.2085 0.37756 0.37756-1.3064 1.6657-2.1276 2.1955-2.1276 1.3724zm-28.376-16.161c-0.96498-2.5147-0.68031-3.1636 0.49853-1.1363 0.58369 1.0038 0.8506 2.0357 0.59313 2.2931-0.25747 0.25747-0.74872-0.26309-1.0917-1.1568z" fill="#e85e63"/>
 <path d="m72.181 114.25c-4.5757-0.18591-8.1757-0.69043-8-1.1212s3.5745-6.1495 7.5529-12.708c3.9784-6.5589 7.5222-13.388 7.875-15.175 0.60609-3.0705 0.48271-3.2467-2.2335-3.1904-7.2288 0.14988-12.799 1.7318-14.965 4.2501-2.1956 2.5525-2.2214 2.5563-4.0072 0.58296-1.3897-1.5356-2.828-1.9188-6.3411-1.6894-6.6551 0.43462-6.4722 2.5702 0.86005 10.04 4.9277 5.0202 6.0782 6.8092 6.0782 9.4515 0 5.38-3.1024 6.6678-13.988 5.8062-9.073-0.7181-9.6492-0.94883-8.174-3.2731 0.63227-0.99622 1.8413-0.81485 5.5736 0.83611 5.7839 2.5585 9.2884 1.9797 10.208-1.6862 0.55865-2.2258-0.13552-3.318-4.9163-7.7348-5.5729-5.1486-8.1093-9.4225-7.1206-11.999 1.4772-3.8495 10.842-4.7724 16.679-1.6438l3.7322 2.0003 2.6215-6.4245 13.442 0.30188c7.3932 0.16604 13.536 0.39293 13.651 0.50421 0.11493 0.11128-3.3726 6.6665-7.75 14.567-4.3774 7.9006-7.959 14.744-7.959 15.208 0 0.46359 2.5875 0.82792 5.75 0.80962 6.1234-0.0354 9.4193-1.7742 10.637-5.6116 0.63677-2.0063 0.71291-1.9998 5.75 0.49309 4.6923 2.3222 5.3166 2.4074 7.7266 1.0547 4.2659-2.3944 3.7627-4.4234-2.789-11.246-4.8414-5.0418-6.075-6.9741-6.075-9.5163 0-2.5039 0.55156-3.3995 2.5651-4.1651 3.4684-1.3187 8.096-1.2273 12.154 0.24018 2.5128 0.90864 3.8166 0.93104 5.1654 0.08872 1.5818-0.98786 1.747-0.82773 1.3404 1.2993-0.66359 3.4713-1.7916 3.7768-5.0503 1.3675-1.929-1.4262-3.9799-2.0142-6.2632-1.7958-5.5513 0.53107-4.9191 3.1061 2.5067 10.21 7.3389 7.021 8.0188 9.2686 4.0146 13.273-2.4799 2.4799-2.8508 2.5436-10.907 1.8726-7.6912-0.64067-8.387-0.54464-8.952 1.2356-0.78567 2.4754-4.7803 4.2902-8.8712 4.0302-1.7616-0.11195-6.9467-0.35565-11.522-0.54156zm56.538-23.255c-1.0682-3.8656-0.76883-9.1114 0.76581-13.418 1.2713-3.5679 1.2277-4.1326-0.48697-6.3125-1.0357-1.3167-2.4217-4.0534-3.0799-6.0815-2.1953-6.7645-9.7565-21.641-12.929-25.438-2.8375-3.3956-3.5961-3.75-8.0275-3.75-4.2557 0-5.3483 0.45447-8.3791 3.4853-4.4455 4.4455-5.106 8.1563-3.3149 18.623 1.5294 8.9373 0.98796 11.892-2.1792 11.892-3.192 0-4.4136-2.5968-3.7716-8.0178 0.46912-3.9609 0.29225-4.9822-0.86281-4.9822-1.1119 0-1.4529-1.4331-1.4529-6.1057 0-3.3581-0.69541-8.7893-1.5454-12.069-0.84995-3.2801-1.2873-6.7767-0.97196-7.7704 0.40687-1.2819-0.08821-2.0193-1.7046-2.539-2.1812-0.70126-2.1529-0.75966 0.66526-1.374 3.8263-0.83405 3.8541-2.3938 0.056697-3.1833-1.65-0.34304-4.4402-1.374-6.2003-2.291-1.7602-0.91701-4.0676-1.6673-5.1276-1.6673-2.321 0-4.6074 2.4867-3.6744 3.9963 0.44719 0.72357-0.16173 0.87517-1.8317 0.45602-1.8886-0.47401-2.7668-0.13238-3.5838 1.3942-1.463 2.7336-1.4212 2.8516 1.2464 3.5211 4.1556 1.043 6.9488 9.7656 5.5408 17.303-0.49172 2.632-2.2385 7.6585-3.8817 11.17-3.4798 7.4362-3.4224 7.1599-1.4876 7.1599 0.825 0 1.4931 0.5625 1.4847 1.25-0.03131 2.5558-1.7603 3.9035-4.5932 3.5801-3.6513-0.41682-4.1218-3.2229-1.9473-11.615 3.8275-14.771 0.39218-23.215-9.4442-23.215-4.1891 0-7.8511 1.9399-12.27 6.5-3.5678 3.6818-5.47 7.1085-13.323 24-2.4512 5.2726-2.8336 5.6799-3.1541 3.3598-0.56365-4.0792 2.5322-14.621 6.5664-22.36 2.3132-4.4373 6.2176-9.5671 10.665-14.012 21.874-21.863 55.691-22.076 77.596-0.48784 11.718 11.548 16.871 23.284 17.566 40 0.46849 11.281-1.5109 24.127-2.9277 19zm-108.47-4.8263c-0.6875-2.9295-1.25-7.192-1.25-9.4722 0-4.0634 0.03615-4.1067 1.8164-2.1737 1.541 1.6732 1.7305 3.1094 1.25 9.4722l-0.56636 7.5zm48.75-60.174c-1.1383-0.7356-0.71622-0.97307 1.75-0.98469 1.7875-0.008422 3.25 0.43469 3.25 0.98469 0 1.2702-3.0345 1.2702-5 0z" fill="#e32028"/>
</svg>
