<?xml version="1.0" encoding="UTF-8" standalone="no"?>
<!-- Creator: CorelDRAW -->
<svg
   xmlns:dc="http://purl.org/dc/elements/1.1/"
   xmlns:cc="http://web.resource.org/cc/"
   xmlns:rdf="http://www.w3.org/1999/02/22-rdf-syntax-ns#"
   xmlns:svg="http://www.w3.org/2000/svg"
   xmlns="http://www.w3.org/2000/svg"
   xmlns:sodipodi="http://sodipodi.sourceforge.net/DTD/sodipodi-0.dtd"
   xmlns:inkscape="http://www.inkscape.org/namespaces/inkscape"
   xml:space="preserve"
   width="744.09448"
   height="685.79712"
   style="shape-rendering:geometricPrecision; text-rendering:geometricPrecision; image-rendering:optimizeQuality; fill-rule:evenodd; clip-rule:evenodd"
   viewBox="0 0 210 297"
   id="svg2"
   sodipodi:version="0.32"
   inkscape:version="0.45.1"
   sodipodi:docname="POL Słupsk COA.svg"
   inkscape:output_extension="org.inkscape.output.svg.inkscape"
   sodipodi:docbase="C:\Users\Mistrz\Desktop"
   version="1.0"><metadata
   id="metadata21"><rdf:RDF><cc:Work
       rdf:about=""><dc:format>image/svg+xml</dc:format><dc:type
         rdf:resource="http://purl.org/dc/dcmitype/StillImage" /></cc:Work></rdf:RDF></metadata><sodipodi:namedview
   inkscape:window-height="480"
   inkscape:window-width="640"
   inkscape:pageshadow="2"
   inkscape:pageopacity="0.0"
   guidetolerance="10.0"
   gridtolerance="10.0"
   objecttolerance="10.0"
   borderopacity="1.0"
   bordercolor="#666666"
   pagecolor="#ffffff"
   id="base" />
 <defs
   id="defs4">
  <style
   type="text/css"
   id="style6">
   
    .fil0 {fill:#0A0B0C}
    .fil1 {fill:white}
    .fil6 {fill:#144A87}
    .fil7 {fill:#29204F}
    .fil5 {fill:#8F1C1A}
    .fil2 {fill:#D72826}
    .fil3 {fill:#F0B431}
    .fil4 {fill:#F2C08D}
   
  </style>
 </defs>
 <g
   id="Warstwa_x0020_2"
   transform="matrix(1.5343147,0,0,1.5343147,-56.123498,-79.335476)">
  <metadata
   id="CorelCorpID_0Corel-Layer" />
  <g
   id="_76815456">
   <path
   id="_76964264"
   class="fil0"
   d="M 0,51.732 L 210,51.732 L 206.4659,146.2759 C 204.6093,202.2891 162.4163,243.3995 106.1119,245.268 C 52.2394,246.0673 3.3619,203.9847 2.8429,146.3005 L 0,51.732 L 0,51.732 z "
   style="fill:#0a0b0c" />
   <path
   id="_76964192"
   class="fil1"
   d="M 1.0397,52.6901 L 208.9607,52.6901 L 205.4616,146.298 C 203.6234,201.7566 161.8482,242.4599 106.1011,244.3099 C 52.762,245.1013 4.3681,203.4353 3.8551,146.3223 L 1.0404,52.6901 L 1.0397,52.6901 z "
   style="fill:#ffffff" />
   <path
   id="_76964120"
   class="fil2"
   d="M 99.1724,95.9006 C 100.2481,94.4392 99.7829,92.895 99.4341,91.8747 C 98.7072,87.5731 95.4801,83.7953 91.4969,80.707 C 88.2698,78.2253 85.9149,75.5505 84.0833,72.8206 C 84.7519,71.6074 85.9149,71.1662 87.1941,72.2966 C 90.2178,67.8848 95.044,71.828 100.1899,72.2966 C 102.0507,72.1313 102.3705,71.4971 102.4286,70.1735 C 102.0507,68.0503 103.5043,66.7542 105.1906,67.223 C 107.8945,67.5264 112.3718,67.3056 113.7963,67.4711 C 112.9241,68.9326 109.9006,68.4363 108.3015,68.8498 C 105.3359,67.9675 104.8126,70.8628 106.2664,70.8628 C 107.1094,71.6625 106.8478,72.7931 107.1094,73.6754 C 109.0574,73.3997 110.5692,73.1791 112.6334,72.2966 C 112.866,72.7931 112.5172,73.2894 111.8776,74.1718 C 113.46,73.4862 114.3374,73.366 115.9768,74.7784 C 118.4191,75.4953 119.7273,74.1718 121.6461,74.1718 C 123.0708,72.5174 124.2338,71.6901 127.9261,72.2415 C 124.2338,73.0136 122.8383,74.613 121.588,77.1223 C 121.937,77.9495 114.2034,77.7841 113.6801,78.5562 C 113.0405,79.4386 114.1452,80.6518 114.9012,80.1555 C 115.5408,79.8522 116.0931,79.0249 116.7328,78.7216 C 117.4305,80.0452 116.9073,82.2786 116.5002,83.7677 C 119.0877,83.9608 120.2507,84.4847 121.1811,86.4976 C 120.6868,86.6631 120.1053,86.3046 119.582,86.1116 C 118.6517,86.3874 118.2155,87.38 119.2622,87.711 C 120.5124,88.3452 121.1811,89.0069 121.3555,90.5235 C 121.0938,91.1026 120.0181,91.4886 119.2622,91.6541 C 120.0763,91.8195 120.2507,91.985 120.5415,92.2608 C 120.6868,92.8674 120.8613,93.9152 120.5415,94.9631 C 120.0181,94.9631 119.4075,94.8803 119.0006,95.294 C 118.8262,98.4374 118.2155,101.581 117.1398,104.8072 C 116.5584,105.8551 116.7038,106.9856 116.7909,108.2817 C 116.0641,109.6879 115.5989,110.7632 115.7733,112.5006 C 116.9654,113.6862 116.1222,114.9547 114.494,114.3204 C 113.3894,114.9547 112.3718,115.2856 112.9241,116.7194 C 113.0696,119.1737 112.7206,120.773 111.3251,119.4493 C 110.6855,122.2343 111.7612,124.6886 111.9647,127.308 C 112.052,129.6519 115.5118,128.1078 116.6165,128.9901 C 116.1804,130.3965 115.221,131.0307 114.8139,132.437 C 118.5645,132.9609 121.7043,133.0437 122.7219,127.5563 C 120.4251,123.1168 119.582,117.5468 119.9018,112.5006 C 117.634,109.3294 117.0526,97.0587 124.4082,92.7846 C 126.8504,90.3581 129.6705,88.4279 130.7172,86.4976 C 131.0951,87.1594 131.1824,88.1245 131.0951,89.1724 C 133.1594,86.222 136.7644,85.8635 139.3229,83.3542 C 140.0207,83.9056 140.1661,84.4847 140.2242,85.2843 C 146.1552,80.7896 151.999,75.6884 156.767,70.4767 C 154.5574,76.0193 150.5743,81.5894 146.5914,86.801 C 148.0449,86.415 148.8009,85.7806 149.7312,84.8983 C 148.8881,86.415 147.3182,87.9315 146.5914,88.9242 C 153.569,84.0711 160.4011,85.4498 171.4783,72.2415 C 167.9313,84.402 163.3376,88.7312 148.83,96.5349 C 158.2498,94.384 165.9834,90.7716 174.2402,87.711 C 166.2451,97.8584 146.2423,99.3199 148.8009,102.8219 C 153.8597,102.1324 158.5987,100.9468 161.07,99.8162 C 161.3316,100.3677 161.07,100.7812 160.8083,101.0847 C 168.5418,99.8713 176.159,97.9963 185.3464,92.8399 C 182.4099,97.8033 173.4262,108.9158 164.9658,108.3643 C 163.2795,108.447 161.1571,109.2468 160.0814,110.1842 C 170.4607,109.8533 165.2856,113.5483 183.9217,109.2743 C 176.8278,113.6862 168.3673,113.9619 158.337,113.7138 C 167.3207,116.8849 167.815,122.5929 187.2071,119.8078 C 186.1313,122.0689 179.9096,124.0267 175.9265,124.7988 C 172.1469,125.1297 171.0422,125.9846 170.8968,124.3577 C 168.8616,125.2676 165.6925,125.5709 166.5649,123.9716 C 165.1983,124.7988 161.1862,124.6058 160.2267,122.841 C 159.4418,122.4273 158.4533,123.4477 157.0869,123.6958 C 166.623,127.7769 176.3335,130.8377 187.4977,131.3891 C 176.9441,134.0362 166.8846,131.4719 157.0869,128.6592 C 166.7974,135.6356 178.2815,143.2738 188.5153,143.7701 C 182.9913,144.9835 177.5546,145.1213 171.9434,144.2389 C 166.3613,143.3841 159.7907,141.0402 154.7318,137.5659 C 151.6792,136.2147 156.4182,139.7442 153.3073,137.8968 C 152.5223,137.428 150.2837,136.518 149.4405,136.0769 C 160.8083,147.603 172.554,152.0976 185.8987,155.7927 C 177.4383,155.6272 167.9894,152.594 160.4011,149.1473 C 158.1916,148.0167 161.4769,150.7466 158.0172,148.9817 C 153.8597,147.3824 151.6501,145.5073 147.3763,143.6047 C 162.7562,160.6182 175.9265,168.8078 192.0042,175.0673 C 186.7128,176.2531 181.8866,174.9571 176.8278,173.3577 C 173.3099,169.9108 173.7169,169.7178 172.4376,171.2896 C 170.5188,170.8485 164.5297,169.4973 163.6284,167.8153 C 162.8143,164.0098 161.4479,162.9345 161.4479,166.1332 C 159.5872,165.7472 152.4932,161.5282 150.7197,159.4326 C 149.8475,156.2339 149.2661,155.9581 147.9578,157.9159 C 146.6205,157.2541 142.899,154.4139 141.3872,152.98 C 148.9171,164.1478 160.8083,169.2216 170.1699,174.5158 C 156.9997,171.2069 145.4575,164.4787 131.6766,151.6289 C 136.59,162.7139 145.1086,168.7803 154.2376,174.9846 C 151.3884,174.6813 149.2079,174.2677 146.6205,173.1095 C 144.0328,171.9789 141.5325,170.3796 139.2066,168.5873 C 136.0086,166.1332 133.0431,163.1552 130.3392,160.0943 C 127.6354,157.061 125.1932,153.7797 123.0417,150.7189 C 124.8443,155.7651 126.8794,159.7358 130.7172,163.8996 C 123.7395,160.7009 118.5935,154.0278 115.3954,146.6379 C 114.6394,145.6176 113.7963,145.6727 113.7092,147.0515 C 116.9363,155.2687 120.8031,160.9492 127.1993,167.2085 C 135.7468,173.5507 138.23224,179.69921 138.49384,186.28951 C 135.69184,186.97211 133.12229,186.87443 129.04969,185.00633 C 124.95659,183.07633 121.5927,180.7263 117.9485,179.053 C 114.9539,178.0682 111.6407,177.6377 108.7627,178.6677 C 106.6552,177.4768 105.8392,173.2002 105.0743,172.5857 C 103.8241,173.2198 102.7194,173.3026 101.4692,172.6408 C 102.8939,171.2896 98.5909,166.5468 95.2184,163.8168 C 95.2184,164.9198 95.1311,165.4989 95.1311,166.6019 C 94.695,167.9255 93.7648,167.8428 93.1832,167.0431 C 91.6132,165.4162 90.0432,163.4308 88.1244,162.5485 C 88.1244,163.1827 87.8627,163.8341 87.1069,164.4131 C 84.4902,162.152 81.2631,159.0741 79.1698,159.6532 C 78.0069,158.9362 76.4558,159.1307 75.4382,157.2557 C 74.0136,156.4835 71.0583,156.3717 72.2502,152.4009 C 67.8021,155.4066 63.441,158.1365 58.9928,161.1697 C 60.2429,162.4658 64.0516,162.9345 68.0928,161.3352 C 70.4768,158.8534 73.326,160.7009 73.5295,164.2029 C 74.6053,166.4089 70.3024,170.2417 67.8021,167.2085 C 65.7378,168.0083 63.7317,168.1737 61.3477,167.2913 C 59.1672,168.2564 56.6959,167.9255 55.7365,166.2986 C 54.6026,167.1258 53.0036,167.4568 51.7244,166.9604 C 50.6778,169.0008 51.2882,170.8209 47.7994,170.5451 C 47.247,172.6684 45.2119,173.3853 42.7116,172.0617 C 42.7697,173.8541 41.8685,174.7365 39.5717,174.5158 C 36.4317,173.7988 40.6473,168.2839 35.0943,168.7252 C 35.0943,166.078 36.7806,164.8647 40.2403,166.4916 C 41.5777,166.8776 43.6711,166.0505 44.1943,165.2507 C 42.4208,165.3886 41.5196,165.6092 40.0659,163.9823 C 36.519,163.8444 36.0248,163.3482 33.9023,161.1697 C 30.1227,162.769 28.4074,159.8737 29.5704,156.2615 C 28.8436,154.7173 31.7799,157.8608 32.594,157.1714 C 35.6176,156.2615 30.9368,152.0976 35.9957,153.9452 C 37.7401,154.4967 38.525,158.5777 40.502,158.4398 C 39.6007,157.4473 39.3682,156.7578 39.31,155.3239 C 35.3268,154.0278 37.4202,150.4156 40.8218,149.0644 C 43.8745,147.8788 46.1423,150.4984 45.2119,152.0149 C 46.055,153.0628 46.1423,153.9452 45.8225,155.0757 C 47.4215,155.9581 48.2647,156.9233 48.7589,158.7432 C 49.8637,159.7358 50.7068,159.3223 52.2477,158.1365 C 55.94,155.1585 59.7486,152.1804 62.4234,149.0644 C 60.3301,149.7814 57.6264,149.6987 55.2714,148.0994 C 58.0043,147.3548 62.2782,143.9079 63.6155,141.9778 C 61.842,141.0402 60.0394,143.0808 57.0158,141.8124 C 58.9928,140.2957 62.1035,137.0144 61.7838,133.6502 C 60.8535,135.9666 58.7311,136.518 56.3761,135.4701 C 58.0624,132.9058 57.8008,128.6592 58.4694,126.4257 C 57.5682,126.8945 55.94,126.729 54.777,126.3981 C 56.1144,125.2951 57.5391,124.4128 57.5391,123.1168 C 53.4979,123.034 52.1605,117.2709 50.6487,114.3204 C 52.0442,114.9271 53.8468,117.1054 54.6899,116.0577 C 51.3755,112.6936 48.6717,109.0812 45.7352,105.2208 C 45.3864,106.7374 45.5608,107.6199 46.5203,108.8607 C 49.0206,108.9158 49.4566,112.1971 47.7413,113.4104 C 46.055,113.7138 46.2585,113.9896 44.5432,114.2929 C 42.6825,114.6238 41.2579,113.245 42.6825,111.1494 C 40.6765,110.7632 39.659,108.3368 40.7346,106.572 C 39.5717,105.5517 39.4845,103.6214 39.7461,102.5737 C 38.7285,102.16 38.118,101.3604 37.9726,100.478 C 35.9665,100.3677 32.8848,100.5607 32.2451,98.9062 C 30.0355,99.6783 27.419,99.7611 25.5583,98.079 C 24.7732,99.4302 21.5751,99.0441 21.4879,96.0661 C 21.8078,94.1359 21.866,94.6046 22.1858,92.702 C 23.5232,90.5235 25.7327,90.7716 27.1573,92.5365 C 29.425,91.9023 32.9719,93.9703 36.0248,93.2534 C 35.8794,91.6541 35.9375,89.5584 36.6934,87.8764 C 35.8503,86.2771 36.0248,84.9811 37.3038,83.1887 C 35.356,81.1206 35.5014,79.1904 38.2633,78.0323 C 39.7752,79.8797 41.9266,80.4312 43.0315,77.1223 C 46.6657,77.7565 46.9855,81.5342 44.2234,83.2163 C 44.2234,85.312 43.8745,86.7459 42.9442,88.7588 C 43.7001,92.5365 45.241,91.406 44.9794,89.4757 C 44.9794,87.3249 45.9969,86.4425 48.6135,86.6631 C 48.4391,85.0638 50.1254,83.6299 52.5675,83.7953 C 52.5675,81.5342 54.4573,79.0524 56.7831,81.2033 L 59.7486,82.4994 C 62.7142,82.6649 60.9408,86.994 57.1321,87.0766 C 56.6087,88.5933 52.6548,88.8414 50.9685,90.8545 C 49.4566,92.0401 48.4391,92.5365 48.6135,94.3013 C 48.6135,96.204 49.1077,97.4171 48.7589,99.5129 C 52.2477,103.2354 55.8238,107.2889 59.3126,111.0115 C 58.8184,108.1162 59.7486,105.2208 61.9291,104.8899 C 61.7838,112.0318 66.0867,111.2321 67.2496,114.4583 C 68.0928,113.9619 69.1103,113.4932 71.0583,113.4932 C 69.6337,113.4932 67.5986,113.3278 68.0056,112.5281 C 70.2151,111.8939 72.3956,109.3294 73.7622,108.0334 C 80.1002,104.0074 82.7167,103.3733 89.142,102.7391 C 88.8804,100.8916 89.0549,100.6434 90.8283,101.1122 C 95.7127,102.6564 98.213,100.1747 99.1724,95.9006 L 99.1724,95.9006 z "
   style="fill:#d72826"
   sodipodi:nodetypes="cccccccccccccccccccccccccccccccccccccccccccccccccccccccccccccccccccccccccccccccccccccccccccccccccccccccccccccccccccccccccccccccccccccccccccccccccccccccccccccccccccccccccccccccccccscccccc" />
   <path
   id="_76964048"
   class="fil3"
   d="M 73.9074,162.466 C 76.4951,161.8868 78.7628,163.6791 79.7514,165.9956 C 77.7743,164.8925 76.4079,164.8098 74.4309,165.4716 C 74.3435,164.4238 73.9947,163.4861 73.9074,162.466 z M 38.5541,168.9184 C 36.4899,169.525 35.763,170.0214 34.8618,171.5656 C 33.4952,174.6539 35.763,175.7017 37.0132,175.8673 C 36.9259,174.9297 36.7515,174.0749 37.2748,173.22 C 38.1762,171.7586 38.6412,171.4828 39.9786,171.3174 C 40.5311,170.2971 39.7171,169.1666 38.5541,168.9184 z M 34.6582,154.8278 C 31.3439,150.8019 26.9246,154.2211 26.1106,157.337 C 29.0762,154.6623 30.7043,157.2267 32.5069,157.9989 C 34.1349,158.2746 35.1234,156.565 34.6582,154.8278 z M 42.5081,149.5059 C 41.6068,147.2722 38.0018,144.7079 35.2106,147.7136 C 37.3621,148.5959 38.8157,148.458 39.4554,151.1328 C 40.2694,150.1125 41.4324,149.6713 42.5081,149.5059 L 42.5081,149.5059 z M 45.6771,114.817 C 46.811,114.4585 48.1193,114.1276 48.7298,113.5485 C 49.0206,115.3409 48.6427,117.74 44.4851,119.4771 C 45.2991,117.4918 46.1131,116.2784 45.6771,114.817 z M 23.116,93.1985 C 19.947,92.3436 17.534,95.5147 16.8944,97.2243 C 18.9876,96.2042 20.5286,96.1214 22.5055,96.4523 C 22.6799,95.3493 22.9416,94.3842 23.116,93.1985 L 23.116,93.1985 z M 58.9346,77.7292 C 58.8474,79.2734 58.9346,80.652 57.7426,81.8653 C 58.8765,82.4443 59.7778,82.6651 60.9116,83.2441 C 61.1733,81.0933 60.5337,79.1906 58.9346,77.7292 z M 100.0446,96.2868 C 101.5855,95.7629 100.219,90.7995 99.1433,88.6486 C 97.1662,85.4775 94.259,82.2788 90.7411,80.0454 C 88.2407,77.6465 86.9615,76.0195 84.8973,73.455 C 78.3848,72.5727 75.739,76.3779 76.2334,81.2863 C 80.5362,79.0251 83.0657,80.0729 85.8276,82.8305 C 94.4044,83.2165 98.2711,87.9317 97.0209,92.3161 C 94.7242,90.6064 92.6599,89.1451 88.7641,89.1451 C 85.5369,89.3381 82.6295,89.1451 79.664,88.8141 C 76.873,88.566 74.896,88.0421 73.7039,86.4978 C 72.9772,86.167 72.8899,85.7257 73.297,85.1191 C 74.0819,84.0161 73.2679,83.4095 72.1921,83.3267 C 69.8372,83.6576 69.0231,85.643 69.2849,86.7461 C 69.9245,88.2902 71.3781,89.5863 74.0819,90.1928 C 77.8614,90.965 82.019,90.7995 85.7986,90.441 C 90.2178,90.1928 93.4449,91.1304 95.7418,92.7022 C 91.2644,93.8603 87.0197,92.2333 83.9088,90.3583 C 84.0833,91.5441 83.8506,93.0882 86.1474,93.3915 C 90.2469,95.1012 95.0148,96.149 100.0446,96.2868 z M 44.049,77.9222 C 42.8861,75.6058 39.9786,72.0763 37.6529,73.1793 C 39.0774,74.9165 39.5426,76.7088 39.7171,78.6942 C 41.5196,80.8175 43.1768,79.8799 44.049,77.9222 L 44.049,77.9222 z "
   style="fill:#f0b431" />
   <path
   id="_76963976"
   class="fil4"
   d="M 183.079,93.9979 C 178.0784,96.4521 173.0777,99.0441 168.1643,99.7611 C 168.0771,100.4504 167.9317,100.7261 167.8154,101.4155 C 156.942,105.1932 146.9115,105.469 136.9684,104.5314 C 145.3125,107.3992 157.9013,107.2613 168.2806,102.2979 C 173.0777,99.3751 178.3109,96.8933 183.079,93.9979 L 183.079,93.9979 z M 177.0026,100.5331 C 165.7512,106.7374 154.238,108.4194 142.5795,108.9709 C 145.9229,108.9984 149.2373,109.0537 152.5517,109.1088 C 154.5287,109.4398 158.0176,109.8258 159.9655,110.1842 C 161.3029,109.1364 162.0879,109.0261 163.8613,108.3919 C 163.5415,107.7025 163.309,107.0131 164.1231,106.7374 C 167.0885,105.7171 169.9959,105.1932 173.4557,104.8072 C 173.0487,104.2006 173.4557,104.1179 173.0487,103.5388 C 174.8221,103.0149 176.3049,102.1049 177.0026,100.5331 L 177.0026,100.5331 z M 160.0236,93.8601 C 152.4646,96.7002 143.539,99.2648 134.9332,100.809 C 136.2997,101.002 137.6662,101.195 139.0035,101.4155 C 146.0102,98.8787 156.2732,97.8584 160.0236,93.8601 L 160.0236,93.8601 z M 167.7573,81.1757 C 161.0994,87.1043 151.9994,92.6193 144.4984,97.4724 C 146.1265,96.8381 147.3186,96.4521 148.8013,96.5349 C 154.7904,93.2259 163.8322,87.4904 167.7573,81.1757 L 167.7573,81.1757 z M 166.5943,77.4808 C 164.3847,79.5213 162.4659,81.0103 159.7911,82.527 C 160.4889,82.8854 160.5762,83.4644 160.0236,83.9332 C 152.4646,88.7036 141.9108,93.9703 134.0319,97.4171 C 134.6134,97.6103 134.7879,97.7758 135.2239,98.0239 C 144.2949,94.4116 153.6276,89.5309 161.2157,83.8229 C 163.2509,81.8926 165.1115,80.321 166.5943,77.4808 z M 132.2584,97.7205 C 133.5667,97.6103 134.9041,98.0514 135.7472,99.0717 C 133.9446,100.9743 132.6073,101.0571 131.2699,100.5331 C 130.8049,100.0092 131.0955,99.4578 131.5026,99.4853 C 132.2874,99.2372 133.1888,99.6508 133.7994,98.9889 C 133.2469,98.8234 132.4329,99.2372 132.113,98.9338 C 131.5897,98.7683 131.2991,97.9688 132.2584,97.7205 L 132.2584,97.7205 z M 134.2355,107.1234 C 138.3058,106.5444 150.3132,113.4104 156.3894,113.4104 C 154.9358,113.6862 152.5809,113.4932 151.1272,113.7965 C 156.5348,115.065 161.4192,117.7949 166.3908,119.5046 C 158.1629,117.2433 141.2422,112.9969 133.4504,108.3643 C 133.0725,108.1438 133.4796,107.6474 132.9271,107.5095 C 131.4153,108.1438 131.6479,109.2468 130.3686,109.7431 C 130.6885,108.6401 131.3863,107.5095 131.9677,106.2962 C 133.1016,106.0757 133.7412,105.662 134.2645,105.0002 C 134.1483,104.6969 134.061,104.3937 133.9738,104.1179 C 133.3923,103.8697 132.8109,103.6214 132.2584,103.3733 C 131.7351,102.4634 130.7757,101.8291 128.8569,101.4155 C 129.8744,101.195 130.3396,100.9468 131.8224,101.388 C 132.8109,102.0221 133.4504,102.5461 134.3518,103.4009 C 134.7588,104.0902 135.7763,104.5314 136.823,104.3661 C 136.3579,105.469 135.3984,106.572 134.2355,107.1234 L 134.2355,107.1234 z M 140.6898,112.0318 C 148.9467,117.7121 159.762,119.3667 169.1236,120.9108 C 158.8898,117.8776 150.1678,116.0301 140.6898,112.0318 z M 186.3643,131.4995 C 164.6754,131.4719 150.1678,122.2068 137.2882,115.644 C 145.3125,122.7308 162.902,129.1557 169.2691,130.3137 C 172.5252,131.0859 178.6017,131.8579 186.3643,131.4995 z M 130.3977,110.1291 C 132.1422,111.2045 134.4099,112.7211 134.9332,114.0171 C 135.1949,115.2028 134.7007,115.3407 134.9623,116.5264 C 133.3051,118.429 131.677,116.361 130.2523,115.0373 C 129.7872,115.4786 129.7581,115.3682 129.293,115.8371 C 133.0144,119.0908 134.2064,118.429 137.1428,118.0706 C 136.7067,116.5264 136.2706,114.4859 135.8636,112.9693 C 134.7588,111.5079 132.5783,110.2946 130.3977,110.1291 L 130.3977,110.1291 z M 176.3049,142.1708 C 162.0879,136.132 148.2781,128.2732 136.794,120.966 C 135.282,118.9806 133.654,119.6423 134.6134,121.1314 C 136.6195,121.8208 137.986,122.7308 139.1489,124.0818 C 150.3132,130.0656 163.1636,139.2204 176.3049,142.1708 L 176.3049,142.1708 z M 131.1828,123.1168 C 132.8981,124.4128 134.061,126.8118 136.794,127.9423 C 136.7648,130.2035 133.683,133.3194 130.9501,132.63 C 134.4099,131.9406 135.3112,130.2035 134.6134,128.6868 C 133.5377,127.1426 131.706,125.0193 131.1828,123.1168 L 131.1828,123.1168 z M 170.9262,151.9323 C 158.6281,145.8659 147.6093,137.8968 136.9392,128.5765 C 136.5032,128.9901 136.2706,129.6519 136.3288,130.1482 C 145.8067,139.0548 158.8317,146.0865 169.2108,151.5186 C 166.4199,150.9947 156.3894,146.886 152.9588,145.3419 C 156.1278,147.2445 170.432,153.5591 170.9262,151.9323 L 170.9262,151.9323 z M 126.2112,141.4264 C 126.6763,141.1506 127.1416,140.8472 127.6067,140.5439 C 134.6716,148.1269 141.7364,155.7375 148.8013,163.3482 C 141.2713,156.0409 133.7412,148.7336 126.2112,141.4264 L 126.2112,141.4264 z M 183.3989,171.4275 C 161.8843,160.9216 144.3821,148.8163 133.0725,134.3121 C 132.9271,133.5399 132.2003,131.8303 130.892,133.2642 C 130.8339,134.0914 130.0779,134.6981 128.4789,134.6981 C 130.4558,135.5805 131.7642,135.1668 132.2874,134.6154 C 139.7886,141.8675 143.3646,150.581 154.8776,156.5372 C 152.7553,156.4269 151.0981,155.5445 149.2665,154.607 C 152.3192,156.9233 155.4592,158.6053 159.4132,160.0943 C 159.0643,160.3976 158.1339,160.4527 157.2327,160.0943 C 159.2678,162.1624 162.6403,163.7617 165.315,165.5816 C 164.4138,165.4989 164.065,165.2783 163.338,165.0302 C 164.2685,168.3667 167.5829,169.4422 172.5834,171.2069 C 171.9438,169.3318 170.6645,167.6774 168.862,166.4365 C 173.4847,168.4218 179.7355,171.2896 183.3989,171.4275 L 183.3989,171.4275 z M 128.6533,129.6519 C 128.0137,129.9001 127.6649,130.3412 127.4032,130.9205 C 128.4789,130.9205 128.8278,131.4443 129.4965,132.106 C 130.1942,132.1336 131.0955,131.8028 131.1247,130.7272 C 130.5431,129.8174 129.8163,129.8726 128.6533,129.6519 L 128.6533,129.6519 z M 127.4032,131.527 C 128.3916,132.0234 128.7405,132.823 128.8278,134.2846 C 128.5661,134.6981 128.4789,134.5878 128.2172,134.5327 C 127.4905,133.2642 126.8217,133.9259 126.1239,133.3469 C 126.2983,132.7403 126.6763,132.0509 127.4032,131.527 z M 121.8502,136.9591 L 123.1002,136.2699 C 124.4959,137.1246 125.0482,139.6891 127.316,138.8342 C 126.9379,137.29 124.6412,136.7661 123.9726,135.5805 L 125.4844,134.0087 C 129.3802,135.0566 127.4032,138.0622 129.1185,140.4336 C 123.3329,141.7571 124.2632,138.1174 121.8502,136.9591 L 121.8502,136.9591 z M 147.4057,171.0691 C 135.4856,164.9198 128.7114,153.4488 122.3735,142.3362 C 122.4898,142.998 122.2572,143.5219 121.5013,143.8253 C 127.8684,155.4617 137.0265,166.9328 147.4057,171.0691 z M 115.4539,138.3379 C 116.8496,138.0622 118.4776,137.7038 119.6405,138.007 C 120.7163,137.7865 121.1815,138.5861 121.7919,138.9997 C 121.9083,140.1578 122.4316,141.0127 122.577,142.1708 C 121.6175,142.0054 121.2396,141.6194 120.4546,140.9025 C 119.6987,140.1578 119.001,140.1303 118.0124,140.9576 C 118.0996,141.5641 117.9252,142.0054 117.2856,142.3638 C 116.6751,140.9576 116.7623,139.5237 115.4539,138.3379 z M 113.7386,139.634 C 116.4424,144.7077 119.1463,149.809 121.8502,154.9103 C 118.7683,149.9193 115.7156,144.9283 112.6628,139.9372 C 113.0118,139.8546 113.3607,139.7442 113.7386,139.634 z M 78.8968,159.4199 C 78.2573,159.1442 77.8024,158.9757 77.0174,158.5897 C 76.8719,156.9628 76.2338,155.7099 75.6813,154.0831 C 75.1871,153.3109 74.6057,154.3313 75.0417,154.8276 C 75.1581,155.4894 75.4967,156.2571 75.4677,157.1395 C 74.5373,156.6156 73.9381,156.4533 72.9787,155.9017 C 74.5777,155.2124 74.4604,151.9598 74.6348,149.8641 C 74.9255,150.6086 75.1871,151.8495 75.7977,152.5665 C 76.321,152.0976 77.0187,151.1601 77.2804,150.4707 C 77.8618,153.5867 77.7339,156.4144 78.8968,159.4199 L 78.8968,159.4199 z M 86.4386,156.7578 C 87.7469,160.2322 87.322,162.4178 86.101,163.4105 C 86.4499,163.7415 86.7101,163.9146 87.0881,164.3283 C 88.5304,163.1862 88.7645,159.5153 86.4386,156.7578 z M 94.2885,159.5428 C 93.9396,159.5704 93.2418,159.598 92.8638,159.6532 C 93.7069,161.6385 94.8699,164.3684 94.7827,167.1809 C 95.9166,164.396 94.5792,160.0667 94.2885,159.5428 L 94.2885,159.5428 z M 113.2444,150.6086 C 112.8082,148.7336 111.5001,147.603 108.8251,146.886 C 105.7143,146.0589 100.9463,139.8546 98.0098,136.3801 C 99.8124,139.4409 106.1504,147.9064 108.2147,147.6582 C 109.5812,147.4928 111.1801,150.5535 112.8082,151.7392 C 113.6223,152.9249 113.4769,151.684 113.2444,150.6086 z M 41.0839,94.4116 C 40.0663,93.9152 39.6594,94.5771 40.2407,94.8803 C 40.8513,95.4318 41.3166,96.5349 39.8919,96.7554 C 38.8743,97.0035 38.8161,97.3069 39.4849,97.8584 C 41.2583,98.1065 44.311,100.809 45.8519,102.0773 C 44.9216,99.5956 42.712,96.4245 41.0839,94.4116 L 41.0839,94.4116 z M 46.5207,161.2249 C 43.2063,161.2525 41.52,159.6532 38.6999,158.1089 C 38.758,158.7983 39.3686,160.4527 41.4037,161.4455 C 42.3341,161.6385 44.1947,162.9622 45.1833,163.6514 C 46.3753,163.6789 47.4509,162.576 47.9161,162.4934 C 47.1603,162.3278 46.6661,161.8039 46.5207,161.2249 L 46.5207,161.2249 z M 56.1148,164.0927 C 56.7544,164.4512 57.1325,165.4162 55.9404,166.078 C 57.8884,166.9604 60.127,166.7123 61.4935,165.7472 C 62.7146,166.7674 65.5928,167.3739 67.3082,165.8299 C 67.6571,164.6717 68.8491,164.5063 70.8261,165.168 C 69.8957,164.6717 69.6341,164.1203 68.9363,162.8794 C 67.599,163.1827 66.1744,163.8996 65.7382,164.589 C 64.7206,164.9198 63.4414,164.6993 62.3657,164.4512 C 61.3191,164.1203 60.127,163.4584 59.6037,162.6588 C 58.6444,160.2873 56.4346,162.4934 55.0682,161.9969 C 53.1784,161.087 51.9865,162.1624 52.1609,164.3684 C 53.1202,164.8923 53.7891,162.6313 56.1148,164.0927 L 56.1148,164.0927 z M 68.9654,136.7938 C 67.8316,139.7442 62.5402,146.4449 58.0337,148.3475 C 60.7376,147.796 63.9358,144.8731 65.9709,143.6047 C 65.0114,143.1635 65.3021,142.9429 66.5813,142.6948 C 68.3258,140.6541 68.6456,139.6616 68.9654,136.7938 z M 80.4495,128.6868 C 77.4258,133.3469 70.833,142.4458 65.7451,143.0801 C 70.3097,147.1059 75.6232,143.191 77.6583,141.0955 C 80.682,137.8416 83.1823,134.3948 81.4961,130.1482 C 81.4671,133.7606 79.1992,137.9519 76.6699,140.3785 C 75.0417,142.1432 71.7273,143.4392 69.9539,143.1084 C 74.1986,139.8821 79.1992,134.0914 80.4495,128.6868 L 80.4495,128.6868 z M 84.3162,142.0054 C 84.1708,141.1506 83.1823,141.0127 82.8334,141.8124 C 82.0194,143.5219 80.7693,149.3678 83.5604,153.9176 C 84.5197,155.6547 86.7294,154.8276 87.8923,153.8624 C 89.2297,154.9655 91.4102,154.9378 90.7415,152.8147 C 89.4041,151.7392 88.2992,152.1253 87.5725,152.98 C 86.9038,153.8073 86.1188,153.5039 85.392,152.6768 C 83.5022,149.8641 83.9673,145.5625 84.3162,142.0054 L 84.3162,142.0054 z M 95.5968,143.4668 C 96.2073,143.4668 96.527,143.6598 96.9632,143.4668 C 98.0098,146.0037 99.6962,148.4303 101.4405,150.912 C 102.429,152.263 101.6731,154.993 99.3182,155.5169 C 98.9402,152.8698 98.6494,151.9874 96.9341,150.912 C 94.8408,150.0296 90.8869,144.9558 89.8692,142.6396 C 91.3811,144.7628 95.2769,150.1398 98.6494,150.912 C 98.504,152.4562 101.237,152.4009 100.2485,151.0223 C 98.504,148.4854 96.7016,145.5349 95.5968,143.4668 z M 102.2255,109.5777 C 99.6089,113.7689 98.9984,125.5985 102.4871,129.5692 C 101.208,122.7031 101.2952,116.5816 102.2255,109.5777 L 102.2255,109.5777 z M 107.1679,101.1398 L 106.1796,108.2817 L 104.3188,116.8573 L 105.2492,108.4747 L 105.7724,103.456 C 104.2607,105.6068 103.9408,105.2483 102.3999,106.6547 C 104.4642,102.2703 107.8076,97.4724 108.4182,92.8674 C 108.8834,94.9079 107.9821,97.9688 107.1679,101.1398 L 107.1679,101.1398 z M 114.0584,96.8657 C 114.5236,96.2315 114.9889,96.0661 115.3668,96.8657 C 114.4654,99.9817 113.5642,103.0975 112.6628,106.2411 C 113.1281,103.0975 113.5933,99.9817 114.0584,96.8657 L 114.0584,96.8657 z M 110.8894,99.0164 C 111.2383,98.2169 111.907,98.2169 112.0814,98.9062 C 110.8894,102.0773 109.7265,105.276 108.5345,108.4747 C 109.3194,105.3035 110.1044,102.16 110.8894,99.0164 z M 109.4647,85.8083 C 109.0868,87.1319 108.3601,90.6338 110.2208,90.3581 C 110.6859,91.9574 110.3079,93.667 112.2849,94.8252 C 112.0814,93.2259 112.4012,93.1432 113.0409,92.509 C 112.1978,92.8399 111.5291,92.6744 111.0638,92.0401 C 110.7731,91.2405 111.4709,89.9169 110.8894,89.4757 C 109.3776,90.2753 109.6684,87.1319 109.4647,85.8083 z M 110.5115,82.8854 C 110.2789,82.3063 110.5987,81.7549 111.2965,81.8926 C 115.5122,85.7806 114.9889,90.689 114.5817,94.1634 C 114.669,89.8893 113.4769,85.9462 110.5115,82.8854 L 110.5115,82.8854 z M 107.1679,94.6873 C 108.5345,90.4408 108.8543,85.4773 107.1389,82.4165 C 106.8482,82.6373 106.354,82.7475 106.0923,82.9405 C 107.3424,85.6152 108.0984,89.8066 106.2958,94.4668 C 105.191,96.8381 103.8245,100.3677 101.4696,102.0773 C 104.3188,99.3751 105.2492,88.6484 104.6096,85.6152 C 104.2316,91.0751 103.7954,97.9963 100.1031,101.8567 C 98.5913,104.8072 87.8631,107.6474 83.2406,111.1494 C 84.5779,110.6806 88.1539,110.5427 89.2587,110.7632 C 90.2763,108.7228 95.8875,106.1308 98.4169,105.2483 C 100.0159,104.6418 100.83,103.7593 101.9638,103.1252 C 101.3824,104.8072 99.9287,106.1032 98.068,107.4544 C 102.6326,106.4892 105.1619,100.3401 107.1679,94.6873 L 107.1679,94.6873 z M 103.7373,82.389 C 104.0281,80.8725 106.761,81.4515 109.3776,79.1076 C 108.6217,80.4588 108.6217,80.9001 110.0463,81.5342 C 107.6913,81.1757 105.3655,82.72 103.9408,83.6299 C 103.592,83.2714 103.5047,82.8854 103.7373,82.389 L 103.7373,82.389 z M 113.6479,67.5321 C 111.5614,67.3334 108.5944,67.6083 105.0997,67.3127 C 104.7728,67.2328 104.3069,67.1579 103.9408,67.2722 C 101.2782,68.541 104.8961,68.8776 105.7724,68.7947 C 107.1098,68.1605 110.2754,67.8631 113.6479,67.5321 z M 102.5348,70.3269 C 103.8432,70.6855 103.8536,70.9181 105.1619,71.2765 C 104.9875,71.8555 104.9294,71.635 104.784,72.2415 C 103.3446,71.9386 103.0891,71.9454 101.5058,72.1086 C 102.3682,71.7809 102.5945,70.864 102.5348,70.3269 z M 115.8988,74.9967 C 114.864,74.228 113.6381,73.7638 112.3722,74.4752 C 111.4418,74.8887 111.0348,76.3502 110.3079,76.5156 C 109.3485,76.3502 109.6152,75.5581 110.0513,74.7583 C 113.1381,73.937 114.2596,73.0148 115.8988,74.9967 L 115.8988,74.9967 z M 90.945,129.7347 C 92.7476,136.7661 98.2715,146.886 103.5338,149.2576 C 99.8124,144.9558 93.0964,137.7865 90.945,129.7347 z M 168.6004,118.7599 C 173.194,122.9789 178.1947,123.6131 184.0385,120.2766 C 179.5611,120.6626 174.2697,121.0487 168.6004,118.7599 z M 144.2076,109.5777 C 147.3476,109.3019 150.8655,109.3294 154.0927,109.8533 C 155.052,112.2799 170.3447,115.5061 182.2649,110.4048 C 169.2691,114.9822 158.1629,114.7341 144.2076,109.5777 z "
   style="fill:#f2c08d" />
   <path
   id="_76963904"
   class="fil1"
   d="M 89.4328,77.0946 C 90.4504,76.5432 91.4679,75.7711 92.8634,75.3023 C 94.5788,74.3648 96.7302,74.6957 96.4685,77.1774 C 96.0034,79.1353 94.9276,80.1831 92.7762,80.4588 C 91.6714,79.1904 90.5375,78.3355 89.4328,77.0946 L 89.4328,77.0946 z "
   style="fill:#ffffff" />
   <path
   id="_76815600"
   class="fil5"
   d="M 156.16,72.2323 C 150.4907,78.3263 144.8795,83.4276 139.181,89.5492 C 139.6463,88.4738 139.9079,86.4057 139.2392,85.7714 C 136.797,87.5915 134.0931,87.9499 131.9999,90.6246 C 130.837,91.9482 127.29,93.906 125.8363,94.0163 C 127.1737,92.4721 127.6389,90.8728 127.1737,90.1558 C 125.1094,92.1136 122.4347,94.1265 120.6903,96.1947 C 118.8005,100.193 116.6199,106.5076 119.9053,111.6916 C 119.3238,117.7305 120.7775,123.0248 122.8417,127.9055 C 122.8999,122.1975 120.8357,116.1587 122.9871,112.5741 C 119.8762,107.4175 120.8357,100.8273 121.6206,98.7867 C 122.3184,96.4704 123.6558,95.4226 127.0864,94.9538 C 129.2089,94.6505 132.058,93.3545 133.5117,91.893 C 134.9072,90.928 136.39,89.4941 137.7565,89.3838 C 138.0181,90.2661 137.7565,91.1761 137.3494,92.3342 C 140.5184,91.0658 144.9376,90.6522 146.9437,88.7219 C 144.6468,89.632 146.8274,89.1355 144.7923,89.2459 C 143.4258,89.4941 142.9024,88.9977 142.757,88.0878 C 143.3095,87.0675 143.9782,86.2679 144.9376,86.0197 C 145.8679,85.3854 146.5367,85.2476 147.4961,84.9994 C 151.2756,80.0635 153.0491,77.637 156.16,72.2323 L 156.16,72.2323 z M 131.3312,98.4558 C 129.0926,98.0698 126.6213,99.2279 125.6328,100.5514 C 124.8187,102.2335 124.8769,103.9431 125.8363,105.5976 C 126.0398,101.5166 126.505,100.4136 131.3312,98.4558 z M 137.0587,93.2442 C 138.4251,93.3545 137.8728,93.3545 139.6463,92.9685 C 138.0763,94.43 135.1689,96.8565 132.8721,97.3528 C 134.3549,96.0844 136.2737,94.5402 137.0587,93.2442 z M 136.3609,105.5425 C 140.0533,107.0866 145.8098,107.6106 150.3162,107.3348 C 146.2749,107.9415 142.8443,108.2724 138.4251,107.9415 C 137.2912,107.4451 136.1574,107.3348 134.5584,107.0866 C 135.1689,106.5628 135.5468,106.3146 136.3609,105.5425 z M 130.4299,118.4474 C 130.1392,119.0264 129.9357,119.3574 130.4299,119.6607 C 131.1277,120.2122 131.3021,120.8189 131.651,122.1975 C 132.0289,122.8042 132.4069,123.6314 133.6571,123.8244 C 134.384,123.3005 134.5584,123.1351 134.1803,122.887 C 133.3663,123.1351 132.6686,122.1148 132.2615,121.3979 C 132.2906,119.964 131.3894,118.7507 130.4299,118.4474 L 130.4299,118.4474 z M 126.9992,113.5943 C 126.3887,111.5262 127.7261,112.1879 128.2785,114.1181 C 129.6159,119.1368 129.7612,122.2251 128.6855,128.0158 C 129.9066,128.0158 130.7207,129.174 131.4475,130.0563 C 130.1682,129.3119 129.4996,129.0636 128.2203,129.3119 C 126.0398,131.6281 124.0047,134.9922 123.3359,135.7367 C 128.7145,128.7879 128.8599,118.6956 126.9992,113.5943 L 126.9992,113.5943 z M 26.0562,96.5532 C 27.3936,98.2904 29.8648,97.9595 30.8824,97.4079 C 31.551,97.3252 31.9871,98.2628 31.8127,99.0073 C 28.4111,100.2206 25.4457,98.8694 26.0562,96.5532 z M 27.3645,92.5549 C 26.6957,92.8858 26.8411,94.0163 27.0155,94.3748 C 28.0332,93.8784 28.9054,93.4924 30.7952,93.6027 C 30.2427,92.4721 28.7018,92.2515 27.3645,92.5549 L 27.3645,92.5549 z M 37.0459,88.6944 C 37.0459,91.3692 38.0636,92.9685 39.7789,94.623 C 37.9763,95.4777 34.5166,95.009 32.9757,93.2994 C 34.3712,93.3545 34.8364,93.6027 36.0866,93.2166 C 35.8248,91.5622 35.8831,89.9904 37.0459,88.6944 z M 43.5294,78.1609 C 43.2386,80.4771 39.7789,81.525 38.2089,79.9532 C 37.482,81.1114 37.9182,82.3246 38.9938,83.3449 C 38.7613,84.9167 38.0636,86.516 38.9357,88.3635 C 37.9763,88.7771 34.3422,87.1778 37.482,83.2071 C 34.6038,80.4771 36.6389,78.7675 38.6741,77.7197 C 39.6045,80.1463 41.7268,78.8502 43.5294,78.1609 L 43.5294,78.1609 z M 57.223,81.8834 C 55.2751,81.9937 55.0133,83.2898 54.5773,84.834 C 52.6294,84.1722 52.4549,84.9994 52.3968,86.0197 C 54.4028,85.799 56.1182,86.13 56.9614,87.4812 C 54.4028,88.7771 51.8735,89.9904 51.3792,90.5419 C 50.0128,91.8379 47.9776,92.803 48.7335,94.8987 C 48.908,96.3326 48.6754,97.6286 48.8207,99.0624 C 47.2798,96.3877 44.4306,94.3472 44.605,92.0033 C 45.1284,91.5346 46.0296,90.7073 45.7098,89.7147 C 45.6226,88.1429 46.2913,86.7642 48.7335,87.3156 C 49.5185,88.2808 49.8383,89.5768 49.8383,90.79 C 51.1466,89.6871 54.4901,87.5639 53.7923,86.902 C 52.3386,86.8469 50.7687,86.1851 49.5185,87.095 C 47.9776,84.9994 51.3792,83.6206 53.4144,84.0067 C 52.2224,82.0765 54.4028,79.0984 57.223,81.8834 L 57.223,81.8834 z M 59.5779,121.8391 C 58.1533,119.578 55.5077,115.4693 56.1182,112.7946 C 51.8735,108.8514 47.4252,104.605 43.1514,100.6342 C 46.9891,105.9286 51.2047,110.9747 55.0424,116.2415 C 56.031,116.269 56.5543,118.0062 57.3684,118.7783 C 57.223,119.4126 56.7868,119.2471 56.1182,119.192 C 56.9614,120.2949 58.1533,121.2876 59.5779,121.8391 z M 77.9233,111.3332 C 77.6035,112.3258 75.83,114.3388 74.3472,114.8627 C 59.0546,116.5999 61.2061,122.8042 57.1649,125.2308 C 60.1594,121.9494 62.5435,117.5651 58.2115,114.4216 C 60.1303,114.8351 62.1073,116.1863 62.6016,117.4547 C 65.0728,115.0557 70.0153,113.5667 72.3993,113.7046 C 75.6846,113.4288 75.7137,112.1052 77.9233,111.3332 L 77.9233,111.3332 z M 82.0227,104.0258 C 79.1153,105.9837 75.1032,108.5481 72.7191,111.0299 C 71.5562,112.2431 69.7537,112.5741 68.0383,112.7395 C 69.3176,111.8295 70.684,111.1126 71.6725,110.0647 C 74.5799,106.8385 79.5805,104.412 82.0227,104.0258 L 82.0227,104.0258 z M 87.3432,73.3629 C 86.4128,73.4456 86.4418,73.1975 86.2674,74.0247 C 87.7792,77.0855 93.6521,81.9937 94.408,82.1592 C 95.0185,82.4902 95.571,82.4073 94.6406,81.525 C 93.3613,80.946 92.3438,79.8981 91.8495,78.8502 C 93.4776,78.6848 94.6406,76.4788 93.1578,74.7141 C 93.9429,73.6662 96.2978,73.8592 97.3154,75.1277 C 102.8394,78.4642 104.3512,76.3686 112.0266,73.0596 C 105.485,75.8447 101.7345,76.8097 97.2572,74.1902 C 95.3093,73.3078 92.6055,74.3281 91.4425,74.9347 C 94.0592,75.1001 93.2451,77.8852 90.9192,77.5819 C 88.8841,76.8373 87.8374,74.6589 87.3432,73.3629 z M 111.009,78.0506 C 111.5905,78.5193 112.2592,78.8226 112.8697,79.3191 C 112.9569,78.5193 113.8001,77.8852 115.3119,77.6094 C 116.6493,77.4439 117.5505,77.3612 118.7717,76.727 C 114.0908,77.6922 112.2301,75.8447 111.009,78.0506 z M 111.7649,81.8283 C 111.3288,81.0287 111.2997,81.0011 112.2592,81.1941 C 117.8994,86.2403 116.1259,91.7276 116.2131,95.781 C 116.155,90.9556 115.4573,84.9994 111.7649,81.8283 L 111.7649,81.8283 z M 109.8752,99.09 C 110.2531,98.2904 110.602,97.9319 110.8055,99.09 C 110.5438,100.9651 110.0496,103.8604 108.1889,105.4597 C 109.032,103.6122 110.0787,100.7996 109.8752,99.09 z M 114.4106,109.9544 C 113.9164,108.8238 113.6256,109.072 113.1314,109.789 C 112.2301,111.1677 112.4045,112.4361 114.0326,114.2837 C 113.8582,112.2707 113.5094,111.5262 114.4106,109.9544 L 114.4106,109.9544 z M 115.7189,97.0771 C 115.8643,96.3326 116.4748,95.9466 116.6493,96.8289 C 116.155,100.0551 115.3119,104.1914 113.1022,107.0039 C 111.5324,109.3478 111.9103,108.7687 110.3112,111.1126 C 107.4329,116.3518 111.7068,117.2341 112.6662,119.7434 C 112.986,120.1295 112.0847,119.9089 111.2125,119.6056 C 111.3579,121.5082 111.4742,123.4384 111.5905,125.3686 C 110.8927,122.4734 109.817,120.1019 109.1192,117.2341 C 107.5783,114.973 108.3052,112.5465 109.8752,110.3129 C 112.5499,107.3899 116.155,101.8475 115.7189,97.0771 L 115.7189,97.0771 z M 109.788,128.2088 C 107.6655,124.569 106.9969,119.9916 107.0259,116.3793 C 106.9969,115.8003 106.241,115.9657 105.892,116.5723 C 105.1362,121.0395 107.5783,125.7822 109.788,128.2088 z M 118.8007,136.3434 C 121.6499,136.2331 123.5106,138.0254 124.3247,141.3068 C 125.1968,144.9466 128.017,149.1656 130.1684,152.9433 C 127.7554,149.4413 124.8771,145.4429 123.3361,141.941 C 121.2138,135.9298 118.8007,138.1081 113.4512,138.632 C 112.7243,139.8178 110.9218,141.1965 108.7994,141.4722 C 109.1773,145.7462 113.015,145.2499 113.771,147.2629 C 115.0212,150.1031 116.6784,153.7153 118.1901,156.142 C 116.9982,156.0041 112.8987,154.2393 112.5208,153.4396 C 110.602,151.7575 108.5378,150.8752 106.2991,150.8752 C 105.3106,150.8752 105.078,149.9928 106.0956,149.3035 C 108.5378,149.2759 111.5614,150.2685 113.2768,152.5848 C 114.3815,153.3017 115.7189,151.3991 112.7243,147.4007 C 110.8345,145.0293 107.3748,144.726 105.7467,140.9483 C 108.6831,141.1138 111.4742,140.8932 111.7649,139.0456 C 109.0611,136.8672 107.1713,134.5786 106.0956,131.8487 C 107.8691,133.5031 109.6717,134.4959 111.6487,134.4959 C 111.0962,135.1025 111.2706,135.5161 112.0847,135.8746 C 114.2071,137.474 115.6026,137.3636 118.8007,136.3434 L 118.8007,136.3434 z M 131.3605,151.0407 C 129.994,147.7317 127.5228,144.7812 125.8075,141.6652 C 133.1049,148.3934 140.0535,156.7761 147.002,163.8076 C 141.3618,160.0851 136.0123,155.2595 131.3605,151.0407 L 131.3605,151.0407 z M 133.1049,138.3563 C 133.2793,139.1284 132.5816,139.7075 132.2036,139.2112 C 131.2151,137.6945 129.4998,137.5842 130.7209,139.5972 C 134.1805,142.8786 137.9893,146.5184 141.449,149.8273 C 137.0879,146.3529 133.5991,143.1819 129.2381,139.7075 C 128.0461,138.053 128.2496,135.5712 130.8663,135.7919 C 131.9128,136.2331 132.8432,137.2808 133.1049,138.3563 L 133.1049,138.3563 z M 134.0933,125.4513 C 139.9663,128.5949 143.6295,133.7789 149.357,136.0952 C 156.3055,143.1543 166.5394,150.1031 181.6286,154.6805 C 169.4759,153.2466 154.6483,142.4925 147.2637,136.9775 C 142.1467,133.6686 139.1812,128.7327 134.0933,125.4513 L 134.0933,125.4513 z M 145.1995,123.1351 C 153.1947,129.5049 164.3008,136.1504 175.2615,140.1211 C 168.6327,136.5364 162.2656,132.5381 156.2183,128.071 C 152.7876,127.2437 148.572,124.8723 145.1995,123.1351 L 145.1995,123.1351 z M 89.8434,105.0461 C 87.5176,105.1564 85.6569,105.6252 83.4183,106.6455 C 82.7786,107.7209 83.0402,108.5481 84.7265,107.9139 C 85.8313,106.7558 87.256,106.2043 89.8434,105.0461 z M 96.9955,108.1345 C 94.2917,108.2172 91.8495,108.9341 89.8434,111.4986 C 91.4134,111.2505 92.9834,111.0023 94.5534,110.7816 C 93.2741,111.9122 92.431,113.4564 92.0822,115.3039 C 94.2045,113.0428 95.8327,109.2651 99.2924,108.6308 C 98.1004,109.1824 96.8502,116.5999 98.9144,117.9787 C 97.9259,114.1734 99.4959,110.3129 101.6764,106.673 C 100.8915,106.8385 99.4668,107.8864 96.9955,108.1345 L 96.9955,108.1345 z M 87.663,112.8774 C 88.2153,112.8774 88.7678,112.8774 89.3202,112.8774 C 87.4885,115.2487 85.6569,117.6202 83.7962,120.0192 C 85.1045,117.6202 86.3837,115.2487 87.663,112.8774 z M 66.9044,144.0642 C 66.0323,145.8015 63.2703,147.9799 60.8281,149.3862 C 61.2061,149.331 61.8166,149.2759 62.4853,149.138 C 64.7821,148.6416 67.2242,146.3529 68.5616,144.6709 C 67.7476,144.5882 67.8058,144.4227 66.9044,144.0642 L 66.9044,144.0642 z M 55.1006,126.3613 C 58.2115,125.5065 61.8166,123.2178 63.0086,121.8391 C 62.8633,122.4181 62.3981,123.08 62.5435,123.7969 C 60.5083,125.1756 57.5719,126.1408 55.1006,126.3613 L 55.1006,126.3613 z M 75.423,120.3776 C 73.9693,120.4603 72.3993,120.2397 70.9166,119.578 C 69.114,119.6883 67.8348,120.157 66.8754,120.9567 C 64.0553,123.2454 60.8863,127.5747 62.0491,131.0215 C 63.2993,130.3045 65.2472,127.6298 67.1952,127.9607 C 68.6779,127.0782 68.3872,126.9404 67.1079,127.161 C 66.0904,127.2437 64.346,127.6298 63.4447,128.6224 C 62.6598,127.4091 65.6833,121.3979 70.5968,120.6258 C 72.254,121.2325 74.3182,121.0395 75.423,120.3776 z M 78.4758,123.3833 C 75.5102,125.0653 73.5623,126.1959 70.4223,127.3264 C 68.5616,128.1261 68.3,128.3743 67.893,130.2218 C 66.4393,131.0215 65.5961,132.6484 64.8693,134.551 C 64.8402,135.8746 63.9098,136.757 63.183,137.7773 C 63.9972,137.2808 65.0437,136.4261 65.8579,135.9573 C 65.5961,137.0051 64.9275,138.6872 63.9389,139.7626 C 64.5786,139.6247 65.2182,139.5145 65.8288,139.4042 C 63.7354,142.4925 60.6828,145.4705 57.3102,147.318 C 61.6131,145.9394 65.2472,142.4925 67.4568,138.9353 C 67.1079,138.3011 66.8463,138.3011 66.2649,138.5217 C 66.7882,137.7221 67.1079,135.9573 67.8058,135.6264 C 69.1431,134.9095 70.2479,132.4829 70.1607,129.3119 C 72.0214,130.0563 76.0917,125.4789 78.7083,124.0174 C 79.5514,123.466 79.4933,123.1351 78.4758,123.3833 L 78.4758,123.3833 z M 99.118,93.4372 C 98.6237,94.099 98.2457,94.2094 97.5771,94.4575 C 94.3499,94.3748 92.0239,93.9335 87.692,92.6376 C 90.5704,94.5954 95.1058,95.0641 98.8272,95.395 C 99.1471,94.7333 99.6994,94.0163 99.118,93.4372 L 99.118,93.4372 z M 96.6757,80.3944 C 95.6582,80.4771 95.7454,80.3117 95.8327,80.8633 C 97.6934,84.1722 98.3911,86.902 99.7866,91.8379 C 100.2227,88.6117 98.6237,84.0894 96.6757,80.3944 z M 103.2755,90.9556 C 103.2173,89.0252 103.508,86.1851 102.3741,83.5931 C 104.2639,83.9515 103.0429,84.6685 105.6594,83.1519 C 105.8339,86.9296 106.0664,91.7552 104.7873,94.9814 C 105.2234,91.7552 105.4559,87.1226 105.2815,83.8688 C 104.5256,84.4204 104.0604,84.4755 103.4208,84.4755 C 104.1476,85.7439 104.0604,90.1007 103.2755,90.9556 L 103.2755,90.9556 z M 110.9799,76.7546 C 109.3227,78.0782 107.4911,79.0984 104.9617,79.6775 C 104.7873,80.3944 104.7873,80.808 105.485,80.808 C 108.2761,79.8981 110.0787,77.8576 112.4045,76.534 C 115.1084,76.8649 116.911,77.3336 118.3937,76.2307 C 115.9806,76.92 115.0212,76.6167 113.1022,75.955 C 111.7359,75.8722 111.4452,75.9825 110.9799,76.7546 z M 104.2057,122.9697 C 104.1185,125.2308 105.1362,128.0434 105.7176,130.4699 C 105.3978,131.1042 105.3106,130.9939 104.3803,131.3524 C 105.3106,133.9167 106.4736,136.0125 108.1889,138.3839 C 108.7703,138.9353 107.8109,140.3416 106.5898,140.0659 C 103.0138,137.5567 101.502,134.4132 99.6122,131.3524 C 99.2052,129.9736 98.2748,128.7051 97.3445,127.7401 C 97.3445,128.843 97.2572,129.753 96.6467,130.4699 C 94.6406,127.878 92.8671,117.6478 97.6061,109.982 C 92.6927,115.2212 93.0416,126.8025 96.5013,133.1171 C 96.4432,131.8762 96.763,131.3524 97.5189,131.2696 C 97.6061,130.5251 97.955,130.1666 98.6237,130.6354 C 99.9611,134.027 101.909,138.053 104.7582,140.2589 C 106.7934,140.9483 108.9738,140.8656 110.8927,139.5696 C 108.1017,136.757 106.241,134.3304 104.9036,131.3524 C 106.241,131.2696 107.1713,131.1042 107.4039,130.1666 C 106.1538,127.7952 104.7873,125.4789 104.2057,122.9697 z M 97.4317,124.8172 C 99.0307,128.6224 100.4844,133.7789 104.4675,136.5915 C 101.8218,133.9443 103.886,131.7935 101.909,129.6703 C 99.6413,129.3394 98.6237,126.3062 97.4317,124.8172 L 97.4317,124.8172 z M 88.7969,111.6089 C 89.2039,110.561 82.3716,111.3608 79.9876,112.8774 C 79.6386,113.7046 80.3364,114.0079 81.6739,113.6218 C 83.8253,112.7671 85.8313,111.7468 88.7969,111.6089 L 88.7969,111.6089 z M 90.0179,123.3833 C 90.3087,124.4311 91.1518,123.9347 91.5297,123.3833 C 90.5704,121.9218 91.5297,119.4401 91.5297,117.4547 C 90.2214,119.4126 89.1457,120.543 86.8199,121.3979 C 85.0755,121.6736 83.0402,122.7215 81.3249,124.2933 C 81.5285,121.7839 81.2958,117.8959 84.6393,115.1384 C 82.6042,115.883 76.586,120.0192 76.586,122.6388 C 77.9814,121.3152 80.54,119.9364 80.9179,120.2949 C 81.6739,120.2949 81.354,121.1222 81.354,121.8391 C 80.7435,123.466 79.7258,124.183 78.5048,125.3686 C 79.2316,125.3135 79.4933,125.5616 79.8132,125.8926 C 77.9523,127.2437 76.8476,129.4221 75.83,131.6557 C 75.3358,132.6484 74.7834,132.5932 74.4927,131.3524 C 73.9693,133.2826 71.8179,135.4334 69.8409,136.5088 C 71.2655,137.336 70.5968,139.5696 68.8814,141.6101 C 69.7828,141.3068 70.5677,140.4795 71.4981,139.6247 C 72.7483,138.1633 73.2425,136.2331 73.1844,134.551 C 73.7077,134.4959 73.9693,134.027 74.1437,133.2826 C 74.8125,134.027 75.6556,133.8616 76.2079,132.9241 C 77.8651,129.753 79.0572,127.6574 81.3249,125.1756 C 83.8834,122.887 84.4649,122.5561 87.7502,121.7564 C 89.6399,121.3428 89.9016,122.0872 90.0179,123.3833 L 90.0179,123.3833 z M 80.569,146.1875 C 80.3364,145.3051 80.3364,143.4852 81.3249,142.4097 C 79.3188,143.43 77.2256,145.4981 77.0221,147.3731 C 78.4176,146.6562 79.1153,145.1948 80.569,146.1875 L 80.569,146.1875 z M 85.1627,155.8111 C 83.0693,155.4525 82.2844,154.9838 80.947,153.3017 C 80.3074,152.3642 79.0281,152.2263 78.7955,153.0536 C 78.4758,154.4875 78.7665,157.5758 79.2025,159.6439 C 81.732,159.2855 83.8834,161.905 86.0639,163.4768 C 86.0058,161.6293 83.4183,159.5336 81.9064,158.4306 C 80.6853,157.631 80.8888,156.3074 81.354,155.6455 C 82.3716,156.721 83.5346,156.721 85.1627,155.8111 L 85.1627,155.8111 z M 94.6988,151.537 C 97.17,152.6951 97.2281,153.1363 98.5364,154.9011 C 99.0307,153.6602 98.5946,151.1234 94.6988,151.537 z M 100.1646,147.318 C 101.2694,148.5865 103.0138,150.2961 104.4094,149.1104 C 104.2639,151.3991 104.3803,154.0186 102.7812,155.7835 C 101.2113,156.6658 100.6588,155.8387 101.3566,154.6529 C 102.6359,153.5223 103.3627,152.4745 100.1646,147.318 z M 94.815,159.6163 C 95.2511,160.9124 95.571,162.429 95.571,163.6698 C 97.7515,164.9382 99.0307,166.6754 100.6879,169.0744 C 99.9901,165.7103 97.1118,162.2634 94.815,159.6163 L 94.815,159.6163 z M 107.9854,175.9957 C 109.8752,176.7677 110.1077,174.5342 111.387,173.4036 C 112.4627,172.5764 115.1084,173.6794 115.7189,173.2658 C 113.8873,171.9146 117.2017,171.501 117.9285,171.501 C 116.5329,171.4734 114.2943,170.2877 113.4512,169.6259 C 112.5208,169.7362 113.7419,171.9697 113.0441,172.1903 C 111.1253,172.2179 108.9738,170.9771 108.0435,169.9017 C 107.3457,168.6883 106.5898,168.7986 106.5898,169.9292 C 106.5898,171.308 106.241,171.9973 105.485,172.797 C 106.7934,173.5139 107.2876,174.9754 107.9854,175.9957 z M 116.3294,142.1891 C 117.1145,142.658 117.5215,142.6028 118.4228,142.6028 C 119.6729,147.456 122.9582,152.9984 125.4003,157.9343 C 121.708,153.1087 118.7426,147.4007 116.3294,142.1891 L 116.3294,142.1891 z M 96.8211,135.0749 C 96.385,136.8121 95.8617,137.2808 94.9313,138.3011 C 97.7515,141.3619 100.5425,145.8015 104.0022,148.0901 C 102.4032,145.9118 100.6588,143.7885 99.9029,141.2516 C 98.7981,141.0586 97.8096,139.4042 97.7806,138.1357 C 97.4608,137.1154 97.1409,136.0952 96.8211,135.0749 L 96.8211,135.0749 z M 91.2099,131.4626 C 89.9597,135.1025 89.7272,138.4114 91.1518,142.2994 C 91.9076,143.43 93.216,143.7333 94.9313,143.3473 C 94.6988,142.0788 94.9895,142.2167 96.1815,141.8858 C 95.4837,140.8381 94.6988,138.7423 93.8266,139.4042 C 92.8381,140.0659 92.3438,139.0456 93.3904,137.7497 C 92.2566,135.3506 91.9367,134.744 91.2099,131.4626 L 91.2099,131.4626 z M 90.5994,125.8926 C 89.7272,126.6095 89.2039,127.7401 87.5757,127.5195 C 88.7969,131.8487 87.7211,139.6523 89.4074,141.0586 C 88.9713,138.7699 88.7097,136.8948 89.5237,133.9719 C 90.3378,131.8487 90.6576,127.5747 90.5994,125.8926 L 90.5994,125.8926 z M 94.1464,151.3715 C 92.7508,151.5094 91.8204,151.9506 91.1518,152.7227 C 89.7853,150.7648 88.7097,151.2337 86.6163,152.5297 C 85.4243,150.0479 85.279,147.5111 86.2383,145.1672 C 87.4595,141.8858 85.5697,139.0732 85.8604,135.5161 C 85.308,136.2882 84.6974,136.8397 83.5636,137.1705 C 81.732,140.3968 79.1444,143.9539 74.2019,144.4779 C 77.5453,142.7131 80.4527,140.3692 81.9064,137.2533 C 81.9355,136.3434 82.8367,135.5712 84.116,135.9298 C 84.9591,135.2679 85.9767,134.027 86.3256,133.3101 C 86.9362,133.6134 87.4885,134.9922 87.3722,137.6118 C 87.1397,141.0035 89.0004,143.9539 90.7739,146.7665 C 86.9071,144.2849 86.4709,147.7593 86.8199,150.3237 C 88.855,148.8622 91.8495,150.2134 94.1464,151.3715 L 94.1464,151.3715 z M 29.5159,156.0041 C 28.1204,159.7266 30.3881,162.4013 33.1792,161.4638 C 30.9987,160.3332 32.1325,156.2798 29.5159,156.0041 z M 45.3028,152.0884 C 44.7796,152.7503 44.7796,152.7778 43.5875,152.9157 C 44.8958,153.412 45.3319,154.1015 45.8552,155.0665 C 46.0296,154.2669 46.3785,153.5775 45.3028,152.0884 z M 40.8255,149.0828 C 39.5754,150.6821 43.791,150.0479 45.2447,151.9781 C 46.2331,149.717 42.8606,148.1453 40.8255,149.0828 z M 41.407,154.2945 C 41.058,154.9011 40.5348,155.3147 39.6626,155.2595 C 39.5172,156.8864 40.8836,158.3203 42.0757,159.313 C 43.384,160.2229 44.954,160.5538 46.553,160.4711 C 44.5178,158.8166 42.3664,156.335 41.407,154.2945 L 41.407,154.2945 z M 48.7917,163.8628 C 50.0128,162.9253 49.6929,162.2634 47.8613,163.0356 C 47.0763,163.7525 45.0121,164.7176 44.5178,164.0282 C 43.5584,163.0907 42.3955,162.6496 41.2035,162.3737 C 40.3603,162.4013 39.7207,162.1807 39.2846,161.6568 C 38.6741,162.1807 38.7322,162.4566 37.7728,162.622 C 36.9006,162.5393 36.4064,162.1532 36.8424,161.5466 C 37.6275,160.609 37.8891,159.2579 37.2204,158.596 C 36.9006,159.5888 35.1562,160.6641 33.935,161.133 C 35.8831,163.5319 37.5401,164.0558 40.0987,163.9455 C 41.2907,165.6275 42.5699,165.407 44.1399,165.2691 C 45.6517,165.1588 47.4252,164.7176 48.7917,163.8628 L 48.7917,163.8628 z M 41.407,167.806 C 39.837,166.9787 38.2961,166.9512 37.3948,167.1993 C 36.6389,167.4751 37.9182,168.0266 37.4529,168.3575 C 36.4645,168.3575 35.8248,169.4053 35.3597,168.9917 C 34.9527,167.5579 36.261,165.214 37.831,165.8482 C 39.6045,166.1515 40.651,166.896 41.407,167.806 z M 39.6626,171.2804 C 38.6741,170.5634 37.3076,171.3356 36.6971,171.9697 C 37.0459,173.0176 38.1798,174.2309 39.2264,174.4239 C 38.7903,173.4036 38.645,172.2179 39.6626,171.2804 L 39.6626,171.2804 z M 42.8606,169.1296 C 44.3143,170.0671 44.9249,171.4458 46.931,172.1076 C 45.9715,172.7419 44.6923,173.183 42.9189,172.1352 C 42.6571,170.922 43.0933,170.3153 42.8606,169.1296 L 42.8606,169.1296 z M 51.1175,168.6332 C 49.9837,169.4053 48.5882,170.012 47.1635,169.4053 C 47.4543,170.012 47.5415,170.7288 47.3961,171.501 C 47.6578,171.3631 47.7159,170.7565 47.8613,170.4807 C 49.6638,170.7841 50.7687,170.2601 51.1175,168.6332 z M 51.2919,166.6203 C 52.8619,168.0266 56.3798,166.5927 56.2345,165.2691 C 55.2751,162.6771 52.5712,165.9861 51.2919,166.6203 z M 69.2304,165.2967 C 67.9511,165.4345 67.3405,166.1791 67.893,167.282 C 70.4514,169.5984 72.8064,167.806 73.3879,165.4897 C 71.7307,166.1791 70.4514,165.7378 69.2304,165.2967 L 69.2304,165.2967 z M 72.4284,147.8696 C 68.4163,152.6124 61.0607,157.5207 55.5658,161.712 C 57.63,160.8021 58.2405,160.6365 59.0256,161.2433 C 61.7003,159.6163 68.4163,154.7632 72.4865,152.309 C 71.7307,150.9579 72.1958,149.4689 72.4284,147.8696 L 72.4284,147.8696 z M 88.3316,157.9619 C 89.9016,159.5888 90.3378,163.3113 92.1694,165.9034 C 90.6576,164.2765 89.5237,163.4216 88.2153,162.5393 C 88.6515,161.1054 88.9713,160.6917 88.3316,157.9619 L 88.3316,157.9619 z "
   style="fill:#8f1c1a" />
   <path
   id="_76815528"
   class="fil6"
   d="M 38.1814,219.706 C 45.0526,220.6524 49.4195,219.8868 55.3348,216.0976 C 62.4328,211.5509 67.8214,210.5644 77.1031,215.6362 C 85.1987,220.0598 89.2115,221.5131 97.7863,217.2129 C 109.3661,211.4058 111.5472,208.8772 123.6795,215.393 C 132.824,220.304 137.9851,220.2581 144.9744,217.0734 C 153.4937,213.1919 156.6159,208.4353 166.6308,214.4789 C 168.8244,215.8027 172.1169,216.6237 174.3596,216.9779 C 172.3422,218.8697 170.2378,220.6715 168.059,222.3894 C 166.9414,222.1031 165.5868,221.8104 164.0909,220.884 C 158.7074,217.5499 152.9613,220.7615 147.3599,224.2661 C 140.6296,228.4773 131.4932,228.4683 122.2846,223.7433 C 110.5064,217.6999 111.0561,219.1544 100.4197,225.0983 C 91.1598,230.2729 86.2237,228.9124 77.1602,224.2053 C 67.9102,219.8007 63.5213,220.7037 55.9882,225.2352 C 53.4793,226.7444 50.7673,227.3038 48.4268,227.418 C 44.8516,225.0647 41.4307,222.4861 38.1814,219.706 L 38.1814,219.706 z M 17.9277,195.9675 C 21.3307,194.5186 26.8284,195.6049 34.1278,199.4584 C 43.0486,204.1679 47.0085,204.7614 52.0352,201.6467 C 60.6365,196.3168 66.1645,192.8534 76.2053,198.573 C 85.7109,203.9878 89.8339,205.8363 100.0431,199.9168 C 110.0801,194.0971 110.707,192.8198 121.4708,198.4952 C 129.0479,202.4909 135.2471,205.2981 143.7256,200.6268 C 152.3162,195.8936 156.3089,193.1878 166.8168,198.7564 C 172.7433,201.8969 177.488,204.4125 184.3152,202.9339 C 185.4057,202.6978 186.434,202.4411 187.1585,202.2659 C 184.9593,205.379 182.5826,208.3497 180.0437,211.1706 C 177.3665,211.0919 172.8135,210.4473 168.8784,207.9021 C 162.4799,203.7639 154.7796,203.8329 148.3804,207.8956 C 139.4831,213.5445 129.927,213.3559 120.9371,208.0055 C 109.1826,201.0095 109.0328,205.3341 98.283,210.594 C 90.7904,214.2602 85.2734,213.7935 78.6166,209.7278 C 71.5322,205.401 65.2988,202.5306 56.8182,208.4349 C 49.6435,213.43 43.7007,213.6252 36.3672,210.9504 C 32.5237,209.5485 28.8121,207.1402 24.8443,205.8801 C 22.3456,202.7318 20.0336,199.423 17.9277,195.9675 L 17.9277,195.9675 z M 10.8565,181.8895 C 16.2261,177.7751 25.5836,178.4592 31.0204,181.8546 C 42.9397,189.2982 49.2062,187.7858 56.3802,182.2239 C 63.2608,176.2766 71.6698,178.8351 78.6465,182.7621 C 89.3375,188.7798 91.361,190.4381 103.3557,180.9754 C 109.802,175.8901 116.0966,177.6627 123.3072,181.5045 C 137.1146,188.8615 136.0851,187.3179 148.1008,181.2441 C 156.5075,176.2645 163.2629,179.7583 169.9024,182.7176 C 176.1227,185.49 180.194,188.5277 186.248,185.845 C 190.274,184.061 196.0631,180.1909 199.8093,177.4887 C 197.9542,182.8811 195.675,188.035 193.0009,192.9138 C 187.6356,195.436 180.0036,196.9911 174.1346,194.2308 C 170.9733,192.7441 167.7883,191.232 164.5703,189.7787 C 159.4734,187.477 153.8768,186.8035 146.4442,191.8945 C 139.5613,197.4466 131.6506,196.7726 121.6834,191.4598 C 116.0903,188.4785 110.9278,185.0457 104.3322,190.7556 C 92.5289,199.1751 87.9868,197.4335 78.8495,192.8583 C 69.4932,188.1734 66.4647,185.9829 56.3603,192.4813 C 48.0603,197.8193 39.3776,196.2062 30.5007,191.6344 C 25.0191,188.8114 17.2383,188.8303 14.6609,190.1775 C 13.2681,187.4915 12.0005,184.725 10.8565,181.8895 L 10.8565,181.8895 z "
   style="fill:#144a87" />
   <path
   id="_76815384"
   class="fil7"
   d="M 38.1815,219.706 C 42.2545,220.267 45.4476,220.2265 48.6048,219.3109 C 51.5336,221.3065 55.5074,222.6576 59.0582,223.5145 C 58.0836,224.0101 57.0685,224.5852 55.9882,225.2351 C 53.4793,226.7443 50.7673,227.3037 48.4268,227.4179 C 44.8516,225.0646 41.4308,222.4861 38.1815,219.706 L 38.1815,219.706 z M 71.9848,213.3109 C 73.5664,213.8599 75.2578,214.6277 77.1031,215.6361 C 79.9896,217.2133 82.3567,218.4127 84.5969,219.1086 C 85.5536,222.6768 86.9299,225.7241 88.4291,228.3311 C 85.001,227.9921 81.5689,226.4948 77.1602,224.2052 C 76.4609,223.8722 75.7896,223.5697 75.1423,223.2968 C 75.7177,219.8054 74.2638,215.6003 72.2145,213.551 C 72.1364,213.4729 72.0601,213.3925 71.9848,213.3109 L 71.9848,213.3109 z M 117.3937,212.5074 C 119.19,213.133 121.2322,214.0786 123.6795,215.3929 C 132.824,220.3039 137.9851,220.258 144.9744,217.0733 C 145.8094,216.6929 146.5917,216.3042 147.3345,215.918 C 148.0481,218.4396 148.802,220.8 149.5765,222.9126 C 148.8358,223.3491 148.0967,223.805 147.3599,224.266 C 140.8362,228.3479 132.0517,228.4645 123.1322,224.1648 C 120.5402,220.3286 118.696,216.4487 117.3937,212.5074 L 117.3937,212.5074 z M 168.3498,215.337 C 170.3283,216.1661 172.649,216.7079 174.3594,216.9779 C 173.0498,218.206 171.702,219.394 170.3237,220.5494 C 169.5876,218.7165 168.932,216.9894 168.3498,215.337 L 168.3498,215.337 z M 21.5678,195.3548 C 24.8088,195.4252 29.0285,196.7664 34.1278,199.4583 C 36.6252,200.7767 38.7333,201.7727 40.5854,202.4549 C 41.226,203.5936 41.7048,204.8014 41.7048,206.1974 C 41.7048,209.5995 41.5854,211.1494 42.0847,212.4554 C 40.2463,212.1908 38.3582,211.6764 36.3672,210.9503 C 32.8375,209.6629 29.4192,207.5267 25.8113,206.2104 C 24.3352,202.1537 22.8293,198.2848 21.5678,195.3548 L 21.5678,195.3548 z M 66.508,195.6264 C 69.3778,195.5945 72.4811,196.4515 76.2053,198.5729 C 79.0722,200.206 81.4489,201.5144 83.6513,202.3834 C 83.2059,205.9087 83.152,209.1302 83.39,212.0742 C 81.8371,211.5171 80.2617,210.7325 78.6166,209.7277 C 75.1612,207.6173 71.9079,205.8542 68.498,205.2859 C 67.775,202.1398 67.2871,198.7054 66.508,195.6264 L 66.508,195.6264 z M 114.5184,195.3519 C 116.345,195.9134 118.5288,196.944 121.4708,198.4951 C 129.0479,202.4908 135.2471,205.298 143.7256,200.6267 C 143.772,200.6012 143.8176,200.576 143.8637,200.5506 C 144.3846,203.5364 144.9939,206.5316 145.6676,209.4273 C 137.5597,213.453 129.0199,212.8159 120.9371,208.0054 C 118.8131,206.7412 117.0691,205.8486 115.5719,205.2624 C 114.9863,202.0086 114.6729,198.7078 114.5184,195.3519 z M 164.4462,197.5904 C 165.1994,197.9298 165.9879,198.317 166.8168,198.7563 C 172.7433,201.8968 177.488,204.4124 184.3152,202.9338 C 185.4057,202.6977 186.434,202.441 187.1585,202.2658 C 184.9592,205.3789 182.5826,208.3496 180.0437,211.1705 C 177.3665,211.0918 172.8135,210.4472 168.8784,207.902 C 167.8537,207.2393 166.7952,206.6853 165.7145,206.2375 C 165.0928,203.3872 164.688,200.5804 164.4462,197.5904 L 164.4462,197.5904 z M 25.0752,179.5423 C 27.2765,180.0118 29.3368,180.8028 31.0208,181.8545 C 34.1752,183.8244 36.9333,185.1669 39.4175,185.9733 C 39.7672,188.8613 37.6593,190.8002 37.3599,194.5225 C 35.0888,193.8045 32.8015,192.8191 30.5011,191.6343 C 27.9091,190.2994 24.8033,189.6005 21.9759,189.3764 C 23.5318,188.1951 25.0449,186.4026 26.3722,185.0753 C 28.5116,182.9359 27.2795,181.0375 25.0752,179.5423 L 25.0752,179.5423 z M 64.8585,178.7296 C 69.5375,178.4559 74.3624,180.3504 78.6469,182.762 C 82.4149,184.8829 85.1055,186.4612 87.5361,187.203 C 86.4361,190.1569 85.574,192.9558 84.9222,195.6059 C 83.0578,194.9327 81.0924,193.9811 78.8499,192.8582 C 72.944,189.901 69.5589,187.9391 65.3244,188.5275 C 65.2347,185.4074 65.2576,181.5443 64.8585,178.7296 L 64.8585,178.7296 z M 114.5671,178.1027 C 117.3705,178.6248 120.2573,179.8791 123.3076,181.5044 C 134.2276,187.3228 135.8682,187.5734 142.0204,184.4195 C 142.1387,187.4382 142.4403,190.7451 142.8878,194.1702 C 136.8486,197.0891 129.9786,195.8811 121.6838,191.4597 C 119.2229,190.1479 116.8452,188.7496 114.3924,188.0802 C 114.409,184.8128 114.4989,181.4896 114.5671,178.1027 L 114.5671,178.1027 z M 164.3456,180.3347 C 166.2283,181.0435 168.07,181.9007 169.9028,182.7175 C 173.7961,184.4528 176.8474,186.2922 180.07,186.7675 C 180.0034,189.8273 180.4056,193.0361 181.193,195.6919 C 178.7347,195.6852 176.3135,195.2553 174.135,194.2307 C 170.9737,192.744 167.7887,191.2319 164.5707,189.7786 C 164.4316,189.7157 164.292,189.6545 164.1521,189.5943 C 164.1474,186.7927 164.2213,183.7463 164.3456,180.3347 z "
   style="fill:#29204f" />
  </g>
 </g>
</svg>