<?xml version="1.0" ?><svg viewBox="0 0 24 24" xmlns="http://www.w3.org/2000/svg"><defs><style>.cls-1{fill:#ffeabb;}.cls-2{fill:#f7bf75;}.cls-3{fill:#f1734d;}.cls-4{fill:#eae2f9;}.cls-5{fill:#c0c3ee;}</style></defs><g data-name="Marketing Email" id="Marketing_Email"><rect class="cls-1" height="13.32" width="18.14" x="2.79" y="8.01"/><polygon class="cls-2" points="13.18 8.01 11.86 15.45 2.79 21.33 20.93 21.33 20.93 8.01 13.18 8.01"/><path class="cls-3" d="M5.11,6l-1.55.9a1.52,1.52,0,0,0-.77,1.32h0a1.71,1.71,0,0,0,.72,1.39l8.35,5.88,8.35-5.88a1.71,1.71,0,0,0,.72-1.39h0a1.53,1.53,0,0,0-.76-1.32l-1.63-.94Z"/><polygon class="cls-4" points="5.41 2.67 5.41 10.91 5.41 10.91 11.86 15.45 18.31 10.91 18.31 10.9 18.31 2.67 5.41 2.67"/><path class="cls-5" d="M15.46,2.67V8.52a2,2,0,0,1-.86,1.65l-5.12,3.6,2.38,1.68,6.45-4.54h0V2.67Z"/><path d="M4.91,2.67V5.5c-.15.06-1,.57-1.6.92A2.17,2.17,0,0,0,2.29,8V21.33s0,0,0,0a.45.45,0,0,0,.06.19.06.06,0,0,0,0,0s0,0,0,0a.46.46,0,0,0,.07.07l.07.05.1,0,.09,0H20.93a.43.43,0,0,0,.22-.06s0,0,.05,0a.43.43,0,0,0,.12-.11l0,0s0,0,0,0l0-.09a.36.36,0,0,0,0-.1s0,0,0,0V8a2.2,2.2,0,0,0-1-1.59l-1.61-.93V2.67a.5.5,0,0,0-.5-.5H5.41A.51.51,0,0,0,4.91,2.67ZM3.81,7.28l1.1-.64v3.3L3.8,9.16a1.2,1.2,0,0,1-.51-1A1,1,0,0,1,3.81,7.28ZM3.29,10,11,15.43l-7.68,5Zm1.19,10.8L11.86,16l7.38,4.79ZM18.81,6.64l1.11.64a1.06,1.06,0,0,1,.51.9,1.19,1.19,0,0,1-.51,1l-1.11.78ZM20.43,10V20.41l-7.67-5ZM5.91,3.17h11.9v7.48l-5.95,4.19L5.91,10.65Z"/><path d="M12.6,12.42H11.4a.51.51,0,0,0-.5.5.5.5,0,0,0,.5.5h1.2a.5.5,0,0,0,.5-.5A.51.51,0,0,0,12.6,12.42Z"/><path d="M13.76,4.71a3.68,3.68,0,0,0-2.87-.25,3.73,3.73,0,0,0,1,7.28h0a.51.51,0,0,0,.5-.49.5.5,0,0,0-.48-.51,2.73,2.73,0,1,1,1.34-5.15,2.43,2.43,0,0,1,1.19,3.2h0a.73.73,0,0,1-.66.49.14.14,0,0,1-.11-.06.34.34,0,0,1-.1-.23c0-.2,0-2.94,0-2.84a.5.5,0,0,0-.5-.5h0a.5.5,0,0,0-.49.43,1.55,1.55,0,0,0-.77-.2A2,2,0,0,0,10,8a2,2,0,0,0,1.82,2.15,1.63,1.63,0,0,0,1-.39.86.86,0,0,0,.13.2,1.15,1.15,0,0,0,.82.35,1.72,1.72,0,0,0,1.59-1.13A3.41,3.41,0,0,0,13.76,4.71ZM11.84,9.13c-.4,0-.82-.46-.82-1.15a1,1,0,0,1,.85-1.09c.44,0,.74.44.75,1.06V8C12.61,8.61,12.27,9.13,11.84,9.13Z"/></g></svg>