<?xml version="1.0" ?><!DOCTYPE svg  PUBLIC '-//W3C//DTD SVG 1.1//EN'  'http://www.w3.org/Graphics/SVG/1.1/DTD/svg11.dtd'><svg enable-background="new 0 0 51.0196 47.746" id="male-female-sign" version="1.1" viewBox="0 0 51.0196 47.746" xml:space="preserve" xmlns="http://www.w3.org/2000/svg" xmlns:xlink="http://www.w3.org/1999/xlink"><g><g><path d="M11.2159,28.0078C5.0733,26.4082,0.7832,20.9511,0.7832,14.7382C0.7832,7.164,7.0762,1,14.8116,1    c5.4638,0,10.4697,3.1582,12.7539,8.0468l0.6865,1.4707l-1.6221-0.0488c0,0-0.3564-0.0215-0.4199-0.0215    c-7.7363,0-14.0303,6.1641-14.0303,13.7403c0,0.875,0.0908,1.7675,0.2686,2.6542l0.3144,1.5684L11.2159,28.0078z" fill="#FBD0C4"/><path d="M14.8116,28.4804c-0.4317,0-0.8575-0.0254-1.2793-0.0625l-0.6954-0.0625l-0.1816-0.6738    c-0.3154-1.1738-0.4756-2.3496-0.4756-3.4941c0-7.5762,6.294-13.7403,14.0303-13.7403c0.4316,0,0.8564,0.0254,1.2783,0.0625    l0.6944,0.0625l0.1816,0.6738c0.3154,1.1739,0.4756,2.3477,0.4756,3.4922C28.8399,22.3164,22.5469,28.4804,14.8116,28.4804    L14.8116,28.4804z" fill="#FFA8A6"/><path d="M26.21,37.9296c-5.4639,0-10.4707-3.1582-12.7549-8.0488l-0.6865-1.4687l1.6221,0.0468    c0,0,0.3574,0.0215,0.4209,0.0215c7.7353,0,14.0283-6.164,14.0283-13.7422c0-0.875-0.0899-1.7675-0.2686-2.6523l-0.3154-1.5684    l1.5478,0.4024c6.1426,1.5996,10.4327,7.0547,10.4327,13.2676C40.2364,31.7656,33.9444,37.9296,26.21,37.9296L26.21,37.9296z" fill="#C0DFCF"/></g><g><g><path d="M26.4258,38.9296c-8.2871,0-15.0293-6.6132-15.0293-14.7421c0-8.128,6.7422-14.7403,15.0293-14.7403     c8.2861,0,15.0274,6.6123,15.0274,14.7403C41.4532,32.3164,34.7119,38.9296,26.4258,38.9296L26.4258,38.9296z M26.4258,11.4472     c-7.1846,0-13.0293,5.7149-13.0293,12.7403c0,7.0263,5.8447,12.7421,13.0293,12.7421c7.1831,0,13.0274-5.7158,13.0274-12.7421     C39.4532,17.1621,33.6089,11.4472,26.4258,11.4472L26.4258,11.4472z" fill="#43525B"/></g><g><path d="M36.3457,15.4765c-0.2641,0-0.5278-0.1045-0.7246-0.3105c-0.3803-0.4004-0.3647-1.0332,0.0352-1.4141     L49.3301,0.7421c0.4014-0.3789,1.0337-0.3632,1.4141,0.0352c0.3803,0.4004,0.3647,1.0332-0.0352,1.4141L37.0352,15.2011     C36.8413,15.3847,36.5933,15.4765,36.3457,15.4765L36.3457,15.4765z" fill="#43525B"/></g><g><path d="M50.0196,15.5957c-0.5523,0-1-0.4473-1-1V2.4667H36.8887c-0.5522,0-1-0.4472-1-1c0-0.5527,0.4478-1,1-1     h13.1309c0.5522,0,1,0.4473,1,1v13.129C51.0196,15.1484,50.5718,15.5957,50.0196,15.5957L50.0196,15.5957z" fill="#43525B"/></g><g><path d="M15.0274,29.4804C6.7412,29.4804,0,22.8671,0,14.7382C0,6.6113,6.7412,0,15.0274,0     c8.2871,0,15.0293,6.6113,15.0293,14.7382C30.0567,22.8671,23.3145,29.4804,15.0274,29.4804L15.0274,29.4804z M15.0274,2     C7.8443,2,2,7.7148,2,14.7382c0,7.0264,5.8443,12.7422,13.0274,12.7422c7.1845,0,13.0293-5.7158,13.0293-12.7422     C28.0567,7.7148,22.2119,2,15.0274,2L15.0274,2z" fill="#43525B"/></g><g><g><path d="M13.1758,47.746c-0.5522,0-1-0.4472-1-1V28.7207c0-0.5528,0.4478-1,1-1c0.5523,0,1,0.4472,1,1V46.746      C14.1758,47.2988,13.7281,47.746,13.1758,47.746L13.1758,47.746z" fill="#43525B"/></g><g><path d="M19.0645,42.2832H7.2891c-0.5523,0-1-0.4473-1-1c0-0.5528,0.4477-1,1-1h11.7754c0.5522,0,1,0.4472,1,1      C20.0645,41.8359,19.6167,42.2832,19.0645,42.2832L19.0645,42.2832z" fill="#43525B"/></g></g></g></g></svg>