<?xml version="1.0" ?><svg enable-background="new 0 0 32 32" version="1.1" viewBox="0 0 32 32" xml:space="preserve" xmlns="http://www.w3.org/2000/svg" xmlns:xlink="http://www.w3.org/1999/xlink"><g id="grid"/><g id="ball"/><g id="wistle"/><g id="pitch"><path d="M13,14c0,1.66,1.34,3,3,3v9H2v-4h4v-4c2.21,0,4-1.79,4-4s-1.79-4-4-4V6H2V2h14v9C14.34,11,13,12.34,13,14z" fill="#2ECC71"/><path d="M10,14c0,2.21-1.79,4-4,4v-8C8.21,10,10,11.79,10,14z" fill="#27AE60"/><path d="M22,14c0,2.21,1.79,4,4,4v4h4v4H16v-9c1.66,0,3-1.34,3-3s-1.34-3-3-3V2h14v4h-4v4C23.79,10,22,11.79,22,14z   " fill="#2ECC71"/><rect fill="#27AE60" height="16" width="4" x="26" y="6"/><rect fill="#27AE60" height="16" width="4" x="2" y="6"/><path d="M26,10v8c-2.21,0-4-1.79-4-4S23.79,10,26,10z" fill="#27AE60"/><path d="M19,14c0,1.66-1.34,3-3,3v-6C17.66,11,19,12.34,19,14z" fill="#27AE60"/><path d="M16,11v6c-1.66,0-3-1.34-3-3S14.34,11,16,11z" fill="#27AE60"/><g><path d="M30,1H16H2C1.448,1,1,1.448,1,2v4v16v4c0,0.552,0.448,1,1,1h14h14c0.552,0,1-0.448,1-1v-4V6V2    C31,1.448,30.552,1,30,1z M3,7h2v3v8v3H3V7z M15,15.722c-0.951-0.502-1.642-2.503,0-3.444V15.722z M15,10.126    c-3.055,0.552-4.711,6.287,0,7.747V25H3v-2h3c0.552,0,1-0.448,1-1v-3.101c4.274-0.626,6.154-8.245,0-9.799V6c0-0.552-0.448-1-1-1    H3V3h12V10.126z M7,16.816v-5.631C9.252,11.81,9.957,15.789,7,16.816z M17,12.278c0.951,0.502,1.642,2.503,0,3.444V12.278z M29,21    h-2v-3v-8V7h2V21z M29,5h-3c-0.552,0-1,0.448-1,1v3.101c-4.274,0.626-6.154,8.245,0,9.799V22c0,0.552,0.448,1,1,1h3v2H17v-7.126    c3.368-0.678,4.425-6.562,0-7.747V3h12V5z M25,11.184v5.631C22.748,16.191,22.043,12.211,25,11.184z" fill="#2C3E50"/><path d="M30,29h-8c-0.552,0-1,0.448-1,1s0.448,1,1,1h8c0.552,0,1-0.448,1-1S30.552,29,30,29z" fill="#2C3E50"/><path d="M19,29h-2c-0.552,0-1,0.448-1,1s0.448,1,1,1h2c0.552,0,1-0.448,1-1S19.552,29,19,29z" fill="#2C3E50"/><path d="M14,29H2c-0.552,0-1,0.448-1,1s0.448,1,1,1h12c0.552,0,1-0.448,1-1S14.552,29,14,29z" fill="#2C3E50"/></g></g><g id="goal"/><g id="socks"/><g id="shoe"/><g id="jersey"/><g id="bottle"/><g id="shorts"/><g id="corner"/><g id="winner"/><g id="trophy"/><g id="substitution"/><g id="medal_award"/><g id="strategy"/><g id="card"/><g id="gloves"/><g id="stadium"/><g id="keeper"/><g id="time"/><g id="horns"/><g id="flag"/><g id="referee"/><g id="player"/><g id="injury"/><g id="supporter"/><g id="coach"/><g id="cone"/><g id="captain"/><g id="match"/><g id="score"/><g id="celender"/><g id="grass"/><g id="game"/><g id="subsitutions"/><g id="bench"/></svg>