<?xml version="1.0" ?><svg enable-background="new 0 0 32 32" version="1.1" viewBox="0 0 32 32" xml:space="preserve" xmlns="http://www.w3.org/2000/svg" xmlns:xlink="http://www.w3.org/1999/xlink"><g id="grid"/><g id="ball"/><g id="wistle"/><g id="pitch"/><g id="goal"/><g id="socks"/><g id="shoe"/><g id="jersey"><path d="M30,3v6l-4,1v16H6V10L2,9V3l4-1h7c0,1.65,1.35,3,3,3s3-1.35,3-3h7L30,3z" fill="#E74C3C"/><polygon fill="#FFFFFF" opacity="0.2" points="26,2 23,2 27,3 27,9 23,10 23,26 26,26 26,10 30,9 30,3  "/><polygon fill="#C0392B" points="5,9 5,3 9,2 6,2 2,3 2,9 6,10 6,26 9,26 9,10  "/><g><path d="M30.24,2.03l-4-1C26.16,1.01,26.08,1,26,1h-6c-0.55,0-1,0.45-1,1c0,1.65-1.35,3-3,3s-3-1.35-3-3    c0-0.55-0.45-1-1-1H6C5.92,1,5.84,1.01,5.76,1.03l-4,1C1.31,2.14,1,2.54,1,3v6c0,0.46,0.31,0.86,0.76,0.97L5,10.78V26    c0,0.55,0.45,1,1,1h20c0.55,0,1-0.45,1-1V10.78l3.24-0.81C30.69,9.86,31,9.46,31,9V3C31,2.54,30.69,2.14,30.24,2.03z M16,7    c2.41,0,4.43-1.72,4.9-4h4.98L29,3.78v4.44l-3.24,0.81C25.31,9.14,25,9.54,25,10v15H7V10c0-0.46-0.31-0.86-0.76-0.97L3,8.22V3.78    L6.12,3h4.98C11.57,5.28,13.59,7,16,7z" fill="#2C3E50"/><path d="M16,11c-1.65,0-3,1.35-3,3s1.35,3,3,3c0.35,0,0.69-0.07,1-0.18V18c0,0.55-0.45,1-1,1s-1-0.45-1-1    s-0.45-1-1-1s-1,0.45-1,1c0,1.65,1.35,3,3,3s3-1.35,3-3v-4C19,12.35,17.65,11,16,11z M16,15c-0.55,0-1-0.45-1-1s0.45-1,1-1    s1,0.45,1,1S16.55,15,16,15z" fill="#2C3E50"/><path d="M30,29h-8c-0.552,0-1,0.448-1,1s0.448,1,1,1h8c0.552,0,1-0.448,1-1S30.552,29,30,29z" fill="#2C3E50"/><path d="M19,29h-2c-0.552,0-1,0.448-1,1s0.448,1,1,1h2c0.552,0,1-0.448,1-1S19.552,29,19,29z" fill="#2C3E50"/><path d="M14,29H2c-0.552,0-1,0.448-1,1s0.448,1,1,1h12c0.552,0,1-0.448,1-1S14.552,29,14,29z" fill="#2C3E50"/></g></g><g id="bottle"/><g id="shorts"/><g id="corner"/><g id="winner"/><g id="trophy"/><g id="substitution"/><g id="medal_award"/><g id="strategy"/><g id="card"/><g id="gloves"/><g id="stadium"/><g id="keeper"/><g id="time"/><g id="horns"/><g id="flag"/><g id="referee"/><g id="player"/><g id="injury"/><g id="supporter"/><g id="coach"/><g id="cone"/><g id="captain"/><g id="match"/><g id="score"/><g id="celender"/><g id="grass"/><g id="game"/><g id="subsitutions"/><g id="bench"/></svg>