<?xml version="1.0" ?><svg enable-background="new 0 0 32 32" version="1.1" viewBox="0 0 32 32" xml:space="preserve" xmlns="http://www.w3.org/2000/svg" xmlns:xlink="http://www.w3.org/1999/xlink"><g id="grid"/><g id="ball"/><g id="wistle"/><g id="pitch"/><g id="goal"/><g id="socks"/><g id="shoe"><path d="M2,24c0-4,2-9,8.875-12.81c0,0-0.843-5.48,4.039-8.166l0.099,5.357l2.156-3.577   c0,0,7.775,4.343,8.831-2.804c0,0,4,0,4,8L2,24z" fill="#E74C3C"/><path d="M26,2c-0.097,0.654-0.251,1.21-0.449,1.684C26.336,4.83,27,6.746,27,10L2.101,22.45   C2.032,22.979,2,23.498,2,24l28-14C30,2,26,2,26,2z" fill="#FFFFFF" opacity="0.2"/><path d="M13.875,11.19c0,0-0.415-2.767,1.091-5.332l-0.052-2.833c-4.882,2.686-4.039,8.165-4.039,8.165   C4,15,2,20,2,24l3.101-1.55C5.58,18.763,7.864,14.521,13.875,11.19z" fill="#C0392B"/><g><path d="M30,29h-8c-0.553,0-1,0.448-1,1s0.447,1,1,1h8c0.553,0,1-0.448,1-1S30.553,29,30,29z" fill="#2C3E50"/><path d="M19,29h-2c-0.553,0-1,0.448-1,1s0.447,1,1,1h2c0.553,0,1-0.448,1-1S19.553,29,19,29z" fill="#2C3E50"/><path d="M14,29H2c-0.553,0-1,0.448-1,1s0.447,1,1,1h12c0.553,0,1-0.448,1-1S14.553,29,14,29z" fill="#2C3E50"/><path d="M15.342,18.447l2.211-1.105l0.553,1.105C18.281,18.798,18.634,19,19.001,19    c0.15,0,0.303-0.034,0.446-0.105c0.494-0.247,0.694-0.848,0.447-1.342l-0.553-1.105l4.211-2.105l0.553,1.105    C24.281,15.798,24.634,16,25.001,16c0.15,0,0.303-0.034,0.446-0.105c0.494-0.247,0.694-0.848,0.447-1.342l-0.553-1.105    l2.211-1.105l0.553,1.105C28.281,13.798,28.634,14,29.001,14c0.15,0,0.303-0.034,0.446-0.105c0.494-0.247,0.694-0.848,0.447-1.342    l-0.553-1.105l1.105-0.553C30.786,10.725,31,10.379,31,10c0-3.593-0.771-6.186-2.293-7.707C27.45,1.036,26.145,1,26,1    c-0.496,0-0.917,0.363-0.989,0.854c-0.226,1.53-0.78,2.493-1.693,2.944c-1.779,0.88-4.69-0.329-5.662-0.868    c-0.469-0.262-1.063-0.104-1.343,0.357l-0.364,0.604l-0.034-1.886c-0.007-0.35-0.196-0.671-0.499-0.847    c-0.305-0.177-0.677-0.18-0.983-0.011c-4.396,2.419-4.679,6.781-4.606,8.489C2.163,15.123,1,20.907,1,24    c0,0.347,0.18,0.668,0.475,0.851C1.635,24.949,1.817,25,2,25c0.153,0,0.306-0.035,0.447-0.105l3.105-1.553l0.553,1.105    C6.281,24.798,6.634,25,7.001,25c0.15,0,0.303-0.034,0.446-0.105c0.494-0.247,0.694-0.848,0.447-1.342l-0.553-1.105l2.211-1.105    l0.553,1.105C10.281,22.798,10.634,23,11.001,23c0.15,0,0.303-0.034,0.446-0.105c0.494-0.247,0.694-0.848,0.447-1.342    l-0.553-1.105l2.211-1.105l0.553,1.105C14.281,20.798,14.634,21,15.001,21c0.15,0,0.303-0.034,0.446-0.105    c0.494-0.247,0.694-0.848,0.447-1.342L15.342,18.447z M11.359,12.064c0.366-0.203,0.567-0.613,0.504-1.026    c-0.006-0.042-0.518-3.622,2.086-6.089L14.013,8.4c0.009,0.445,0.311,0.832,0.741,0.947c0.43,0.116,0.885-0.068,1.115-0.45    l1.686-2.796c1.437,0.63,4.357,1.617,6.643,0.493c1.251-0.615,2.106-1.73,2.555-3.32c0.856,0.509,2.126,1.963,2.24,6.112    l-1.437,0.719c-0.001,0-0.001,0-0.002,0.001s-0.001,0.001-0.002,0.001l-3.997,1.998c-0.001,0-0.001,0-0.002,0    s-0.001,0.001-0.001,0.001l-5.997,2.999c0,0-0.001,0-0.001,0s-0.001,0.001-0.001,0.001l-3.998,1.999c0,0-0.001,0-0.001,0    s0,0-0.001,0.001l-3.999,1.999c0,0,0,0-0.001,0s0,0,0,0l-3.999,2c0,0,0,0,0,0s0,0,0,0l-2.418,1.209    C3.59,19.45,5.393,15.371,11.359,12.064z" fill="#2C3E50"/></g></g><g id="jersey"/><g id="bottle"/><g id="shorts"/><g id="corner"/><g id="winner"/><g id="trophy"/><g id="substitution"/><g id="medal_award"/><g id="strategy"/><g id="card"/><g id="gloves"/><g id="stadium"/><g id="keeper"/><g id="time"/><g id="horns"/><g id="flag"/><g id="referee"/><g id="player"/><g id="injury"/><g id="supporter"/><g id="coach"/><g id="cone"/><g id="captain"/><g id="match"/><g id="score"/><g id="celender"/><g id="grass"/><g id="game"/><g id="subsitutions"/><g id="bench"/></svg>