<?xml version="1.0" ?><svg height="512px" version="1.1" viewBox="0 0 512 512" width="512px" xmlns="http://www.w3.org/2000/svg" xmlns:xlink="http://www.w3.org/1999/xlink"><title/><desc/><defs/><g fill="none" fill-rule="evenodd" id="SVG" stroke="none" stroke-width="1"><g id="Golf"><g id="5" transform="translate(74.000000, 0.000000)"><path d="M181.25737,14.247838 C87.1302042,14.247838 10.8200436,90.5907779 10.8200436,184.758376 C10.8200436,278.925975 87.1302042,355.268915 181.25737,355.268915 C275.384536,355.268915 351.694696,278.925975 351.694696,184.758376 C351.694696,90.5907779 275.384536,14.247838 181.25737,14.247838 L181.25737,14.247838 Z" fill="#FEFEFE" id="Fill-1"/><g id="Group-5" transform="translate(0.000000, 0.567214)"><path d="M312.699259,75.6440441 C319.256206,93.757361 322.841247,113.299537 322.841247,133.671606 C322.841247,227.846421 246.531086,304.182145 152.40392,304.182145 C99.4939073,304.182145 52.2247436,280.064732 20.9620311,242.221611 C44.6939933,307.819241 107.50074,354.697371 181.25737,354.697371 C275.384536,354.697371 351.694696,278.361647 351.694696,184.186833 C351.694696,142.951975 337.058784,105.130503 312.699259,75.6440441" fill="#010202" id="Fill-6" opacity="0.3"/><path d="M181.256649,24.5060372 C93.2464142,24.5060372 21.6393658,96.1366281 21.6393658,184.184668 C21.6393658,272.239924 93.2464142,343.870515 181.256649,343.870515 C269.266883,343.870515 340.873931,272.239924 340.873931,184.184668 C340.873931,96.1366281 269.266883,24.5060372 181.256649,24.5060372 M181.256649,365.519897 C81.3155128,365.519897 -0.000721336238,284.17595 -0.000721336238,184.184668 C-0.000721336238,84.2006018 81.3155128,2.85665449 181.256649,2.85665449 C281.197784,2.85665449 362.514019,84.2006018 362.514019,184.184668 C362.514019,284.17595 281.197784,365.519897 181.256649,365.519897" fill="#2E2E30" id="Fill-3"/></g><polygon fill="#8E8E8D" id="Fill-8" points="66.4494943 394.379968 296.065246 394.379968 296.065246 352.928616 66.4494943 352.928616"/><path d="M77.2695378,383.562493 L285.245202,383.562493 L285.245202,363.760524 L77.2695378,363.760524 L77.2695378,383.562493 Z M296.065246,405.211876 L66.4494943,405.211876 C60.4768302,405.211876 55.6294507,400.362414 55.6294507,394.387184 L55.6294507,352.935833 C55.6294507,346.953387 60.4768302,342.111141 66.4494943,342.111141 L296.065246,342.111141 C302.03791,342.111141 306.885289,346.953387 306.885289,352.935833 L306.885289,394.387184 C306.885289,400.362414 302.03791,405.211876 296.065246,405.211876 L296.065246,405.211876 Z" fill="#2E2E30" id="Fill-10"/><polygon fill="#8E8E8D" id="Fill-11" points="181.258091 394.381411 148.228105 394.381411 162.568269 498.320097 181.258091 498.320097 199.947913 498.320097 214.288078 394.381411"/><path d="M172.000462,487.493963 L190.50995,487.493963 L201.870996,405.211876 L160.64663,405.211876 L172.000462,487.493963 Z M199.945028,509.143346 L162.565384,509.143346 C157.162576,509.143346 152.589304,505.152643 151.846327,499.798029 L137.506163,395.866559 C137.080575,392.76348 138.011098,389.631536 140.066907,387.271754 C142.122715,384.911971 145.101834,383.562493 148.22522,383.562493 L214.285192,383.562493 C217.415792,383.562493 220.387697,384.911971 222.443505,387.271754 C224.499313,389.631536 225.429837,392.76348 225.011462,395.866559 L210.664084,499.798029 C209.928321,505.152643 205.347836,509.143346 199.945028,509.143346 L199.945028,509.143346 Z" fill="#2E2E30" id="Fill-12"/><path d="M89.5279259,185.025385 C89.5279259,196.687186 80.0784211,206.14075 68.4216275,206.14075 C56.7720473,206.14075 47.3225426,196.687186 47.3225426,185.025385 C47.3225426,173.363585 56.7720473,163.910021 68.4216275,163.910021 C80.0784211,163.910021 89.5279259,173.363585 89.5279259,185.025385" fill="#FEFEFE" id="Fill-13"/><path d="M68.4216275,174.736877 C62.7591381,174.736877 58.1425861,179.355412 58.1425861,185.02755 C58.1425861,190.699689 62.7591381,195.311007 68.4216275,195.311007 C74.0913304,195.311007 78.7078823,190.699689 78.7078823,185.02755 C78.7078823,179.355412 74.0913304,174.736877 68.4216275,174.736877 M68.4216275,216.96039 C50.8282367,216.96039 36.502499,202.635715 36.502499,185.02755 C36.502499,167.412169 50.8282367,153.087494 68.4216275,153.087494 C86.0222318,153.087494 100.347969,167.412169 100.347969,185.02755 C100.347969,202.635715 86.0222318,216.96039 68.4216275,216.96039" fill="#2E2E30" id="Fill-14"/><path d="M163.920053,185.025385 C163.920053,196.687186 154.470549,206.14075 142.813755,206.14075 C131.164175,206.14075 121.71467,196.687186 121.71467,185.025385 C121.71467,173.363585 131.164175,163.910021 142.813755,163.910021 C154.470549,163.910021 163.920053,173.363585 163.920053,185.025385" fill="#FEFEFE" id="Fill-15"/><path d="M142.815919,174.736877 C137.146216,174.736877 132.529664,179.355412 132.529664,185.02755 C132.529664,190.699689 137.146216,195.311007 142.815919,195.311007 C148.485622,195.311007 153.102174,190.699689 153.102174,185.02755 C153.102174,179.355412 148.485622,174.736877 142.815919,174.736877 M142.815919,216.96039 C125.215315,216.96039 110.889577,202.635715 110.889577,185.02755 C110.889577,167.412169 125.215315,153.087494 142.815919,153.087494 C160.416523,153.087494 174.742261,167.412169 174.742261,185.02755 C174.742261,202.635715 160.416523,216.96039 142.815919,216.96039" fill="#2E2E30" id="Fill-16"/><path d="M128.128071,120.077237 C128.128071,131.739038 118.678566,141.192602 107.021772,141.192602 C95.3721921,141.192602 85.9226873,131.739038 85.9226873,120.077237 C85.9226873,108.415436 95.3721921,98.9618726 107.021772,98.9618726 C118.678566,98.9618726 128.128071,108.415436 128.128071,120.077237" fill="#FEFEFE" id="Fill-17"/><path d="M107.023936,109.788729 C101.354233,109.788729 96.7376816,114.407264 96.7376816,120.079402 C96.7376816,125.75154 101.354233,130.362859 107.023936,130.362859 C112.693639,130.362859 117.310191,125.75154 117.310191,120.079402 C117.310191,114.407264 112.693639,109.788729 107.023936,109.788729 M107.023936,152.012242 C89.4233321,152.012242 75.0975944,137.687567 75.0975944,120.079402 C75.0975944,102.464021 89.4233321,88.1393462 107.023936,88.1393462 C124.624541,88.1393462 138.950278,102.464021 138.950278,120.079402 C138.950278,137.687567 124.624541,152.012242 107.023936,152.012242" fill="#2E2E30" id="Fill-18"/><path d="M128.128071,249.435907 C128.128071,261.097708 118.678566,270.551272 107.021772,270.551272 C95.3721921,270.551272 85.9226873,261.097708 85.9226873,249.435907 C85.9226873,237.774106 95.3721921,228.320543 107.021772,228.320543 C118.678566,228.320543 128.128071,237.774106 128.128071,249.435907" fill="#FEFEFE" id="Fill-19"/><path d="M107.023936,239.149564 C101.354233,239.149564 96.7376816,243.760882 96.7376816,249.433021 C96.7376816,255.105159 101.354233,259.723694 107.023936,259.723694 C112.693639,259.723694 117.310191,255.105159 117.310191,249.433021 C117.310191,243.760882 112.693639,239.149564 107.023936,239.149564 M107.023936,281.373077 C89.4233321,281.373077 75.0975944,267.048402 75.0975944,249.433021 C75.0975944,231.824856 89.4233321,217.500181 107.023936,217.500181 C124.624541,217.500181 138.950278,231.824856 138.950278,249.433021 C138.950278,267.048402 124.624541,281.373077 107.023936,281.373077" fill="#2E2E30" id="Fill-20"/></g></g></g></svg>