<?xml version="1.0" ?><svg enable-background="new 0 0 32 32" version="1.1" viewBox="0 0 32 32" xml:space="preserve" xmlns="http://www.w3.org/2000/svg" xmlns:xlink="http://www.w3.org/1999/xlink"><g id="grid"/><g id="ball"/><g id="wistle"/><g id="pitch"/><g id="goal"/><g id="socks"/><g id="shoe"/><g id="jersey"/><g id="bottle"/><g id="shorts"/><g id="corner"/><g id="winner"/><g id="trophy"/><g id="substitution"/><g id="medal_award"/><g id="strategy"/><g id="card"/><g id="gloves"/><g id="stadium"/><g id="keeper"/><g id="time"/><g id="horns"/><g id="flag"/><g id="referee"/><g id="player"/><g id="injury"/><g id="supporter"/><g id="coach"/><g id="cone"/><g id="captain"/><g id="match"/><g id="score"><polygon fill="#E74C3C" points="4,2 28,2 30,20 2,20  "/><polygon fill="#FFFFFF" opacity="0.2" points="28,2 25,2 27,20 30,20  "/><polygon fill="#C0392B" points="4,2 2,20 4,20 6,2  "/><g><path d="M2,21h7.612l-1.561,4.684c-0.102,0.305-0.05,0.641,0.138,0.901S8.679,27,9,27h14    c0.321,0,0.623-0.154,0.811-0.415s0.239-0.597,0.138-0.901L22.388,21H30c0.285,0,0.556-0.121,0.745-0.333    c0.19-0.212,0.28-0.495,0.249-0.777l-2-18C28.938,1.383,28.51,1,28,1H4C3.49,1,3.063,1.383,3.006,1.89l-2,18    c-0.032,0.282,0.059,0.565,0.249,0.777C1.444,20.879,1.715,21,2,21z M10.387,25l1.334-4h8.558l1.334,4H10.387z M4.895,3h22.21    l1.778,16H3.117L4.895,3z" fill="#2C3E50"/><path d="M11,6c-0.552,0-1,0.447-1,1v3H8V7c0-0.553-0.448-1-1-1S6,6.447,6,7v4c0,0.553,0.448,1,1,1h3v3    c0,0.553,0.448,1,1,1s1-0.447,1-1v-4V7C12,6.447,11.552,6,11,6z" fill="#2C3E50"/><path d="M16,7c-0.552,0-1,0.447-1,1v1c0,0.553,0.448,1,1,1s1-0.447,1-1V8C17,7.447,16.552,7,16,7z" fill="#2C3E50"/><path d="M16,12c-0.552,0-1,0.447-1,1v1c0,0.553,0.448,1,1,1s1-0.447,1-1v-1C17,12.447,16.552,12,16,12z" fill="#2C3E50"/><path d="M25,6h-4c-0.552,0-1,0.447-1,1s0.448,1,1,1h3v2h-3c-0.552,0-1,0.447-1,1v4c0,0.553,0.448,1,1,1h4    c0.552,0,1-0.447,1-1s-0.448-1-1-1h-3v-2h3c0.552,0,1-0.447,1-1V7C26,6.447,25.552,6,25,6z" fill="#2C3E50"/><path d="M30,29h-8c-0.552,0-1,0.447-1,1s0.448,1,1,1h8c0.552,0,1-0.447,1-1S30.552,29,30,29z" fill="#2C3E50"/><path d="M19,29h-2c-0.552,0-1,0.447-1,1s0.448,1,1,1h2c0.552,0,1-0.447,1-1S19.552,29,19,29z" fill="#2C3E50"/><path d="M14,29H2c-0.552,0-1,0.447-1,1s0.448,1,1,1h12c0.552,0,1-0.447,1-1S14.552,29,14,29z" fill="#2C3E50"/></g></g><g id="celender"/><g id="grass"/><g id="game"/><g id="subsitutions"/><g id="bench"/></svg>